<svg id="svg" version="1.1" xmlns="http://www.w3.org/2000/svg" xmlns:xlink="http://www.w3.org/1999/xlink" width="400" height="400" viewBox="0, 0, 400,400"><g id="svgg"><path id="path0" d="M150.800 84.827 C 138.858 87.946,129.941 97.843,128.403 109.687 C 128.186 111.354,128.019 130.905,128.012 155.402 L 128.000 198.204 142.602 212.802 L 157.204 227.400 201.902 227.400 C 252.295 227.400,248.486 227.626,255.415 224.224 C 262.909 220.545,268.754 213.301,271.087 204.800 C 271.733 202.445,271.800 200.032,271.800 179.200 L 271.800 156.200 253.926 156.096 L 236.053 155.992 235.926 168.096 L 235.800 180.200 234.722 182.501 C 233.213 185.720,230.139 188.842,227.089 190.250 L 224.600 191.400 199.800 191.400 L 175.000 191.400 172.605 190.224 C 169.555 188.726,166.874 186.045,165.376 182.995 L 164.200 180.600 164.200 155.792 L 164.200 130.983 165.510 128.323 C 169.105 121.020,172.114 119.858,187.900 119.682 L 200.000 119.547 200.000 103.024 C 200.000 93.936,199.888 85.938,199.750 85.250 L 199.500 84.000 176.650 84.022 C 155.291 84.043,153.604 84.095,150.800 84.827 M64.600 252.157 C 55.454 255.034,53.947 265.279,62.105 269.114 C 63.107 269.584,66.128 270.525,68.818 271.205 C 76.080 273.038,78.000 274.338,78.000 277.420 C 78.000 283.677,67.590 285.744,60.125 280.969 C 56.914 278.915,54.887 279.643,56.589 282.239 C 60.705 288.521,77.557 287.700,80.771 281.061 C 83.679 275.054,80.674 270.851,71.739 268.427 C 62.614 265.952,61.633 265.431,60.865 262.649 C 58.894 255.513,69.818 251.923,77.382 257.221 C 79.994 259.051,80.940 259.115,81.129 257.472 C 81.572 253.616,70.885 250.179,64.600 252.157 M100.126 252.343 C 86.222 257.147,85.841 280.438,99.581 285.644 C 108.528 289.034,118.246 283.978,120.407 274.807 C 123.925 259.887,113.074 247.869,100.126 252.343 M191.843 252.461 C 191.305 253.228,191.306 253.478,191.847 254.761 C 192.181 255.552,194.532 262.140,197.071 269.400 C 202.882 286.012,202.968 286.200,204.798 286.200 C 206.484 286.200,206.246 286.724,212.165 270.000 C 214.384 263.730,216.365 258.634,216.567 258.676 C 216.769 258.718,218.175 262.228,219.691 266.476 C 227.467 288.266,226.651 286.400,228.400 286.400 C 230.011 286.400,230.108 286.204,233.981 275.140 C 235.933 269.563,238.446 262.522,239.565 259.493 C 241.762 253.547,241.914 252.758,241.005 252.004 C 239.282 250.575,238.676 251.530,235.490 260.693 C 229.351 278.349,228.592 280.389,228.205 280.264 C 227.987 280.194,225.719 274.074,223.164 266.665 C 217.991 251.665,217.253 250.275,215.528 252.300 C 214.884 253.055,210.760 264.000,207.626 273.269 C 205.293 280.169,205.201 280.400,204.790 280.400 C 204.612 280.400,203.799 278.375,202.984 275.900 C 195.596 253.476,193.791 249.679,191.843 252.461 M259.658 251.956 C 259.360 252.145,257.590 255.697,255.725 259.850 C 243.607 286.829,243.831 286.200,246.360 286.200 C 247.692 286.200,247.757 286.119,249.435 282.400 C 250.377 280.310,251.341 278.285,251.578 277.900 C 251.966 277.267,252.867 277.200,261.031 277.200 L 270.055 277.200 272.237 281.826 C 274.270 286.135,274.491 286.443,275.469 286.326 C 277.879 286.037,277.377 284.618,266.234 260.225 C 262.043 251.049,261.723 250.647,259.658 251.956 M131.427 252.882 C 130.687 253.940,130.471 283.482,131.190 285.374 C 131.683 286.670,133.740 286.833,134.386 285.626 C 134.627 285.175,134.800 281.845,134.800 277.634 L 134.800 270.416 143.100 270.308 L 151.400 270.200 151.538 269.222 C 151.795 267.399,150.907 267.200,142.524 267.200 L 134.800 267.200 134.800 261.008 L 134.800 254.816 143.500 254.708 L 152.200 254.600 152.200 253.400 L 152.200 252.200 142.127 252.093 C 132.092 251.987,132.053 251.990,131.427 252.882 M157.467 252.267 C 156.942 252.791,157.204 254.716,157.833 254.957 C 158.181 255.091,160.881 255.200,163.833 255.200 L 169.200 255.200 169.200 270.026 C 169.200 285.871,169.262 286.400,171.134 286.400 C 173.219 286.400,173.200 286.546,173.200 270.320 L 173.200 255.200 178.626 255.200 C 185.097 255.200,187.030 254.390,185.120 252.480 C 184.599 251.959,157.980 251.753,157.467 252.267 M285.990 253.026 C 285.448 254.451,285.471 284.611,286.014 285.626 C 286.279 286.121,286.851 286.400,287.600 286.400 C 289.388 286.400,289.600 285.534,289.600 278.226 L 289.600 271.600 293.100 271.602 C 299.723 271.606,300.135 271.901,305.572 280.521 C 309.181 286.244,309.349 286.439,310.553 286.321 C 313.119 286.072,309.735 278.706,304.600 273.363 L 302.600 271.282 304.578 270.784 C 310.158 269.379,312.970 262.483,310.207 256.979 C 308.127 252.836,305.495 252.000,294.527 252.000 L 286.380 252.000 285.990 253.026 M322.480 252.480 C 321.538 253.422,321.819 285.475,322.774 285.986 C 323.992 286.638,342.460 286.537,343.367 285.874 C 345.689 284.176,344.315 283.812,334.795 283.600 L 325.800 283.400 325.690 276.908 L 325.580 270.416 334.090 270.308 L 342.600 270.200 342.600 269.000 L 342.600 267.800 334.200 267.600 L 325.800 267.400 325.800 261.200 L 325.800 255.000 334.675 254.892 C 344.146 254.778,345.184 254.508,343.584 252.581 C 342.940 251.805,323.249 251.711,322.480 252.480 M111.337 256.142 C 117.858 259.964,119.356 273.620,113.930 279.785 C 108.678 285.751,98.614 284.477,95.091 277.400 C 92.408 272.010,93.333 262.402,96.945 258.131 C 99.916 254.620,107.055 253.633,111.337 256.142 M304.174 255.805 C 306.499 256.979,307.338 258.365,307.503 261.304 C 307.824 267.013,305.536 268.504,296.100 268.735 L 289.600 268.894 289.600 261.806 L 289.600 254.718 296.100 254.864 C 301.602 254.987,302.842 255.132,304.174 255.805 M262.207 259.100 C 263.641 262.194,268.800 274.043,268.800 274.242 C 268.800 274.329,265.290 274.400,261.000 274.400 C 256.232 274.400,253.200 274.249,253.200 274.012 C 253.200 273.329,260.652 256.800,260.961 256.800 C 261.060 256.800,261.621 257.835,262.207 259.100 M104.956 301.069 C 104.391 302.351,102.791 305.840,101.400 308.822 C 98.525 314.985,98.309 315.711,99.293 315.913 C 99.803 316.018,100.244 315.470,100.971 313.828 L 101.956 311.600 106.582 311.600 L 111.209 311.600 112.288 313.800 C 113.338 315.941,114.415 316.712,114.385 315.300 C 114.377 314.915,112.802 311.092,110.885 306.804 C 106.863 297.806,106.534 297.488,104.956 301.069 M238.579 299.311 C 237.891 301.103,238.623 315.800,239.400 315.800 C 240.160 315.800,240.210 315.467,240.400 309.065 L 240.600 302.329 245.705 309.165 C 252.299 317.994,252.000 318.079,252.000 307.371 C 252.000 299.368,251.949 298.751,251.300 298.876 C 250.671 298.997,250.589 299.709,250.490 305.932 L 250.381 312.854 247.673 309.327 C 246.184 307.387,243.836 304.225,242.455 302.300 C 240.072 298.977,239.019 298.165,238.579 299.311 M56.092 307.495 C 56.190 315.027,56.264 315.802,56.900 315.924 C 57.522 316.044,57.600 315.683,57.600 312.685 L 57.600 309.311 61.113 309.111 C 66.289 308.816,68.400 307.335,68.400 304.000 C 68.400 300.295,66.645 299.200,60.703 299.200 L 55.984 299.200 56.092 307.495 M147.779 299.712 C 147.093 301.499,147.823 315.800,148.600 315.800 C 149.330 315.800,149.410 315.495,149.516 312.300 L 149.631 308.800 151.974 308.800 C 154.651 308.800,155.386 309.400,157.985 313.706 C 159.259 315.818,160.800 316.815,160.800 315.528 C 160.800 314.954,157.760 310.231,156.967 309.573 C 156.131 308.878,156.264 308.554,157.614 307.994 C 161.046 306.573,161.436 301.147,158.211 299.678 C 156.723 299.000,148.041 299.028,147.779 299.712 M192.000 299.800 C 192.000 300.280,192.599 300.400,194.991 300.400 L 197.983 300.400 198.091 308.100 C 198.196 315.497,198.231 315.800,199.000 315.800 C 199.769 315.800,199.804 315.497,199.909 308.100 L 200.017 300.400 203.009 300.400 C 205.401 300.400,206.000 300.280,206.000 299.800 C 206.000 299.290,204.956 299.200,199.000 299.200 C 193.044 299.200,192.000 299.290,192.000 299.800 M286.800 307.612 L 286.800 316.023 292.001 315.912 C 298.485 315.772,299.040 315.047,292.786 314.887 L 288.368 314.774 288.484 311.487 L 288.600 308.200 292.700 308.086 C 295.982 307.995,296.800 307.855,296.800 307.386 C 296.800 306.909,296.022 306.800,292.600 306.800 L 288.400 306.800 288.400 303.613 L 288.400 300.426 292.867 300.313 C 299.866 300.136,299.333 299.200,292.233 299.200 L 286.800 299.200 286.800 307.612 M330.800 307.600 C 330.800 315.733,330.825 316.000,331.600 316.000 C 332.341 316.000,332.400 315.733,332.400 312.400 L 332.400 308.800 334.711 308.800 C 337.632 308.800,338.240 309.234,340.580 312.989 C 342.216 315.614,344.000 317.040,344.000 315.723 C 344.000 315.223,340.858 310.146,340.222 309.618 C 339.328 308.877,339.443 308.562,340.816 307.993 C 343.531 306.869,344.218 302.557,342.031 300.369 C 340.862 299.201,340.858 299.200,335.831 299.200 L 330.800 299.200 330.800 307.600 M65.680 301.502 C 68.542 304.364,66.282 307.400,61.290 307.400 L 57.800 307.400 57.681 304.437 C 57.511 300.194,57.418 300.294,61.392 300.459 C 64.262 300.579,64.915 300.737,65.680 301.502 M156.800 300.918 C 161.091 303.088,158.735 307.200,153.200 307.200 L 149.600 307.200 149.600 303.800 L 149.600 300.400 152.700 300.406 C 154.405 300.409,156.250 300.639,156.800 300.918 M340.759 301.362 C 341.947 302.438,341.928 305.264,340.725 306.384 C 339.974 307.084,339.320 307.200,336.125 307.200 L 332.400 307.200 332.400 303.761 L 332.400 300.323 336.159 300.461 C 339.164 300.572,340.086 300.753,340.759 301.362 M108.548 305.304 C 109.400 307.337,110.184 309.225,110.291 309.500 C 110.439 309.879,109.545 310.000,106.600 310.000 C 103.068 310.000,102.738 309.936,102.971 309.300 C 104.183 305.998,106.247 301.601,106.584 301.604 C 106.813 301.606,107.697 303.271,108.548 305.304 " stroke="none" fill="#364189" fill-rule="evenodd"></path><path id="path1" d="M0.000 200.000 L 0.000 400.000 200.000 400.000 L 400.000 400.000 400.000 200.000 L 400.000 0.000 200.000 0.000 L 0.000 0.000 0.000 200.000 M200.304 101.500 C 200.401 118.385,200.455 119.601,201.104 119.615 C 222.675 120.076,234.820 130.890,235.875 150.576 L 236.122 155.192 254.161 155.296 L 272.200 155.400 272.200 179.000 C 272.200 205.515,272.328 204.228,269.012 211.127 C 265.393 218.657,258.247 224.592,249.800 227.082 C 246.256 228.127,157.272 228.402,152.200 227.383 C 142.105 225.356,133.940 218.547,130.003 208.873 C 127.503 202.729,127.569 204.303,127.690 154.181 L 127.800 108.600 128.739 105.800 C 132.889 93.426,142.002 85.369,153.800 83.645 C 155.120 83.452,166.100 83.318,178.200 83.347 L 200.200 83.400 200.304 101.500 M75.800 252.187 C 80.121 253.721,82.609 256.412,81.405 258.249 C 80.562 259.536,80.026 259.458,77.213 257.640 C 70.506 253.305,61.632 255.003,60.934 260.755 C 60.557 263.856,62.705 265.483,69.600 267.320 C 79.349 269.917,82.000 271.998,82.000 277.054 C 82.000 284.246,74.608 288.488,64.967 286.829 C 58.540 285.724,53.827 281.933,56.080 279.680 C 56.667 279.093,58.259 279.049,58.606 279.609 C 58.745 279.834,59.880 280.531,61.129 281.159 C 68.630 284.927,77.200 283.150,77.200 277.826 C 77.200 274.359,76.507 273.854,68.600 271.566 C 58.569 268.662,56.400 266.844,56.400 261.339 C 56.400 253.547,66.374 248.842,75.800 252.187 M110.932 252.008 C 118.978 254.493,123.305 264.767,120.657 275.099 C 116.468 291.446,93.820 291.360,89.975 274.982 C 86.313 259.386,96.976 247.698,110.932 252.008 M194.716 251.900 C 195.187 252.310,196.220 254.751,197.213 257.800 C 198.973 263.208,203.697 276.658,204.447 278.400 C 204.934 279.529,205.486 278.169,211.485 261.060 C 216.668 246.279,216.672 246.283,225.444 271.673 C 226.940 276.003,228.270 279.480,228.400 279.400 C 228.530 279.320,230.698 273.188,233.218 265.775 C 238.080 251.470,238.415 250.816,240.591 251.362 C 242.285 251.787,242.263 253.172,240.481 258.118 C 239.593 260.583,237.298 267.100,235.381 272.600 C 230.929 285.378,230.347 286.698,229.026 287.029 C 227.303 287.462,226.198 286.365,225.082 283.119 C 221.654 273.141,219.450 266.886,218.075 263.237 L 216.507 259.073 215.598 261.837 C 215.099 263.357,213.881 266.760,212.892 269.400 C 211.904 272.040,210.151 276.900,208.997 280.200 C 207.282 285.106,206.709 286.309,205.850 286.800 C 204.436 287.608,202.827 286.740,202.127 284.792 C 201.852 284.027,200.707 280.880,199.583 277.800 C 194.681 264.368,191.200 254.120,191.200 253.120 C 191.200 251.326,193.242 250.617,194.716 251.900 M262.514 251.767 C 262.907 252.065,265.312 256.964,267.859 262.654 C 270.405 268.344,273.639 275.570,275.045 278.712 C 277.908 285.112,278.023 285.705,276.584 286.648 C 274.790 287.823,273.935 287.004,271.977 282.235 L 270.238 278.000 260.983 278.000 L 251.728 278.000 249.980 282.046 C 248.068 286.472,247.140 287.461,245.488 286.834 C 243.531 286.089,243.714 285.278,247.917 276.091 C 250.104 271.311,253.378 264.020,255.194 259.889 C 258.975 251.287,260.155 249.978,262.514 251.767 M152.571 252.229 C 153.362 253.019,153.364 253.588,152.577 254.711 C 151.968 255.582,151.781 255.600,143.577 255.600 L 135.200 255.600 135.200 261.200 L 135.200 266.800 143.120 266.800 C 151.643 266.800,152.000 266.883,152.000 268.866 C 152.000 270.613,151.111 270.800,142.835 270.800 L 135.217 270.800 135.109 278.485 L 135.000 286.170 133.946 286.761 C 133.001 287.291,132.784 287.282,131.846 286.667 L 130.800 285.982 130.800 269.271 C 130.800 256.807,130.922 252.438,131.280 252.080 C 132.087 251.273,151.753 251.410,152.571 252.229 M185.520 252.080 C 185.784 252.344,186.000 253.028,186.000 253.600 C 186.000 255.438,185.458 255.600,179.320 255.600 L 173.600 255.600 173.600 270.791 L 173.600 285.982 172.554 286.667 C 171.615 287.282,171.399 287.292,170.454 286.761 L 169.400 286.170 169.295 270.885 L 169.190 255.600 163.424 255.600 C 158.715 255.600,157.542 255.485,157.029 254.971 C 156.283 254.225,156.207 252.753,156.880 252.080 C 157.568 251.392,184.832 251.392,185.520 252.080 M306.309 252.561 C 314.176 255.936,313.050 269.410,304.761 271.068 L 303.546 271.311 304.911 272.755 C 305.662 273.550,306.695 274.920,307.208 275.800 C 307.720 276.680,309.213 279.074,310.524 281.121 C 313.137 285.198,313.240 286.474,310.997 287.036 C 309.549 287.400,308.924 286.718,304.935 280.427 C 299.783 272.301,299.341 272.000,292.580 272.000 L 289.600 272.000 289.600 278.991 C 289.600 286.965,289.186 288.004,286.521 286.727 L 285.400 286.189 285.296 269.528 C 285.201 254.440,285.254 252.803,285.856 252.201 C 286.872 251.185,303.796 251.483,306.309 252.561 M343.920 252.080 C 344.597 252.757,344.516 254.009,343.738 254.869 C 343.136 255.534,342.301 255.600,334.538 255.600 L 326.000 255.600 326.000 261.192 L 326.000 266.784 334.285 266.892 L 342.570 267.000 343.172 268.073 C 344.516 270.470,343.423 270.800,334.138 270.800 L 326.000 270.800 326.000 276.800 L 326.000 282.800 334.426 282.800 C 343.549 282.800,344.400 282.965,344.400 284.734 C 344.400 286.764,344.205 286.800,333.149 286.800 C 324.326 286.800,322.767 286.710,322.229 286.171 C 321.404 285.347,321.263 252.897,322.080 252.080 C 322.429 251.731,325.413 251.600,333.000 251.600 C 340.587 251.600,343.571 251.731,343.920 252.080 M102.200 255.549 C 92.319 258.163,90.875 277.183,100.193 281.978 C 107.693 285.838,115.128 281.289,116.391 272.069 C 117.941 260.746,111.388 253.117,102.200 255.549 M289.600 261.767 L 289.600 268.000 296.100 267.999 C 305.143 267.999,307.000 266.952,307.000 261.853 C 307.000 256.668,305.600 255.842,296.519 255.667 L 289.600 255.534 289.600 261.767 M260.193 258.900 C 259.866 259.615,258.268 263.305,256.641 267.100 L 253.683 274.000 261.048 274.000 L 268.413 274.000 267.457 272.100 C 266.931 271.055,265.288 267.365,263.805 263.900 C 260.784 256.843,260.998 257.138,260.193 258.900 M107.762 299.300 C 108.574 300.558,115.200 315.035,115.200 315.550 C 115.200 317.747,112.875 316.559,111.832 313.829 L 111.124 311.975 106.662 312.087 L 102.200 312.200 101.240 314.280 C 100.180 316.577,99.370 317.141,98.451 316.223 C 97.909 315.680,97.922 315.456,98.581 314.108 C 98.986 313.279,100.641 309.550,102.260 305.823 C 105.640 298.037,106.381 297.159,107.762 299.300 M244.668 304.604 C 247.125 307.902,249.412 310.960,249.750 311.400 C 250.310 312.129,250.366 311.607,250.382 305.487 C 250.397 299.876,250.499 298.737,251.005 298.543 C 252.598 297.931,252.800 298.930,252.800 307.420 C 252.800 319.251,252.696 319.284,245.544 309.773 L 240.600 303.198 240.491 309.760 C 240.395 315.504,240.296 316.354,239.701 316.583 C 238.243 317.142,238.000 315.829,238.000 307.404 C 238.000 296.033,238.214 295.943,244.668 304.604 M66.209 299.431 C 71.850 302.108,68.901 308.900,61.993 309.137 L 58.000 309.275 58.000 312.795 C 58.000 316.472,57.484 317.465,56.149 316.358 C 55.567 315.874,55.301 299.632,55.867 299.067 C 56.444 298.489,64.848 298.785,66.209 299.431 M158.366 299.382 C 161.409 300.956,161.457 306.826,158.437 308.118 C 157.866 308.362,157.346 308.595,157.279 308.635 C 157.213 308.675,158.068 310.140,159.179 311.891 C 161.330 315.278,161.590 316.165,160.549 316.564 C 159.646 316.911,159.123 316.383,156.833 312.813 C 154.619 309.362,154.383 309.200,151.567 309.200 L 149.600 309.200 149.600 312.767 C 149.600 316.482,149.323 317.064,147.900 316.332 C 147.181 315.962,146.774 299.759,147.467 299.067 C 148.020 298.513,157.199 298.779,158.366 299.382 M206.526 299.351 C 206.912 300.357,205.871 300.800,203.120 300.800 L 200.400 300.800 200.400 308.351 C 200.400 316.530,200.196 317.361,198.426 316.414 C 197.636 315.991,197.600 315.641,197.600 308.403 L 197.600 300.835 194.700 300.718 C 192.039 300.610,191.789 300.526,191.672 299.700 L 191.544 298.800 198.929 298.800 C 204.835 298.800,206.357 298.910,206.526 299.351 M297.800 299.800 C 297.800 300.546,297.496 300.608,293.300 300.713 L 288.800 300.826 288.800 303.613 L 288.800 306.400 292.967 306.400 C 295.940 306.400,297.183 306.543,297.308 306.900 C 297.755 308.183,297.125 308.400,292.957 308.400 L 288.800 308.400 288.800 311.200 L 288.800 314.000 292.724 314.000 C 296.898 314.000,298.357 314.493,297.878 315.742 C 297.557 316.577,287.298 316.738,286.480 315.920 C 285.954 315.394,285.764 299.569,286.277 299.056 C 287.045 298.288,297.800 298.983,297.800 299.800 M341.457 299.454 C 345.014 301.142,344.568 308.289,340.900 308.387 C 340.146 308.407,340.238 308.623,342.400 311.916 C 344.487 315.095,344.808 316.158,343.800 316.545 C 342.746 316.949,342.223 316.453,340.271 313.196 C 338.113 309.595,337.595 309.200,335.026 309.200 L 333.200 309.200 333.200 312.371 C 333.200 316.127,332.270 317.710,330.880 316.320 C 330.361 315.801,330.160 299.573,330.667 299.067 C 331.262 298.471,340.050 298.786,341.457 299.454 M58.000 304.010 L 58.000 307.303 61.195 307.118 C 65.007 306.897,66.000 306.256,66.000 304.014 C 66.000 301.477,65.338 301.019,61.432 300.859 L 58.000 300.718 58.000 304.010 M149.600 303.800 L 149.600 306.800 152.700 306.794 C 156.890 306.786,157.766 306.305,157.920 303.927 C 158.090 301.323,157.253 300.800,152.911 300.800 L 149.600 300.800 149.600 303.800 M333.200 303.800 L 333.200 306.800 336.100 306.794 C 340.086 306.786,340.967 306.283,341.120 303.927 C 341.288 301.355,340.435 300.800,336.311 300.800 L 333.200 300.800 333.200 303.800 M106.084 303.200 C 105.859 303.750,105.131 305.460,104.467 307.000 L 103.260 309.800 106.480 309.917 C 110.541 310.065,110.441 310.285,108.305 305.909 C 106.605 302.427,106.470 302.261,106.084 303.200 " stroke="none" fill="#fbfbfb" fill-rule="evenodd"></path><path id="path2" d="M184.873 83.900 L 199.546 84.010 199.718 84.905 C 199.865 85.666,199.899 85.636,199.946 84.700 L 200.000 83.600 185.100 83.695 L 170.200 83.790 184.873 83.900 M136.378 92.700 L 135.000 94.200 136.500 92.822 C 137.325 92.063,138.000 91.388,138.000 91.322 C 138.000 91.016,137.662 91.304,136.378 92.700 M187.400 120.000 L 175.000 120.200 172.721 121.268 C 169.700 122.684,167.028 125.430,165.470 128.720 L 164.200 131.400 164.085 154.778 C 163.965 179.030,164.197 182.686,165.926 183.754 C 166.100 183.862,165.821 182.694,165.306 181.158 L 164.370 178.367 164.485 154.884 L 164.600 131.400 165.672 129.113 C 166.795 126.717,169.941 123.013,171.115 122.706 C 171.758 122.538,171.800 124.580,171.800 155.791 L 171.800 189.055 170.501 188.288 C 169.786 187.867,168.558 186.774,167.771 185.861 C 166.985 184.947,166.523 184.571,166.745 185.025 C 167.448 186.464,170.778 189.233,173.130 190.336 L 175.400 191.400 199.800 191.400 L 224.200 191.400 226.827 190.155 C 234.284 186.622,235.600 183.201,235.600 167.361 C 235.600 158.700,235.717 156.020,236.100 155.865 C 236.375 155.754,234.681 155.649,232.335 155.632 C 213.255 155.490,201.015 143.800,200.053 124.800 L 199.800 119.800 187.400 120.000 M247.000 155.886 C 260.135 156.166,272.001 156.173,272.000 155.900 C 272.000 155.735,265.205 155.639,256.900 155.687 C 248.595 155.735,244.140 155.825,247.000 155.886 M157.682 227.896 C 159.158 227.973,161.678 227.973,163.282 227.897 C 164.887 227.821,163.680 227.758,160.600 227.758 C 157.520 227.757,156.207 227.819,157.682 227.896 M285.382 269.200 C 285.382 278.110,285.435 281.755,285.500 277.300 C 285.564 272.845,285.564 265.555,285.500 261.100 C 285.435 256.645,285.382 260.290,285.382 269.200 M68.705 255.083 C 69.202 255.179,69.922 255.175,70.305 255.075 C 70.687 254.975,70.280 254.896,69.400 254.901 C 68.520 254.905,68.207 254.987,68.705 255.083 M104.500 255.076 C 104.885 255.176,105.515 255.176,105.900 255.076 C 106.285 254.975,105.970 254.893,105.200 254.893 C 104.430 254.893,104.115 254.975,104.500 255.076 M160.700 255.497 C 162.295 255.573,164.905 255.573,166.500 255.497 C 168.095 255.421,166.790 255.359,163.600 255.359 C 160.410 255.359,159.105 255.421,160.700 255.497 M173.382 255.702 C 173.277 255.977,173.239 262.862,173.300 271.002 L 173.410 285.800 173.505 270.711 L 173.600 255.622 179.300 255.499 L 185.000 255.376 179.287 255.288 C 175.010 255.222,173.527 255.326,173.382 255.702 M134.982 261.200 L 135.000 267.000 142.400 267.013 L 149.800 267.026 142.511 266.904 L 135.222 266.782 135.093 261.091 L 134.965 255.400 134.982 261.200 M56.501 261.400 C 56.505 262.280,56.587 262.593,56.683 262.095 C 56.779 261.598,56.775 260.878,56.675 260.495 C 56.575 260.113,56.496 260.520,56.501 261.400 M307.293 261.600 C 307.293 262.370,307.375 262.685,307.476 262.300 C 307.576 261.915,307.576 261.285,307.476 260.900 C 307.375 260.515,307.293 260.830,307.293 261.600 M93.714 269.000 C 93.717 270.100,93.795 270.503,93.887 269.895 C 93.979 269.286,93.977 268.386,93.882 267.895 C 93.787 267.403,93.711 267.900,93.714 269.000 M89.293 269.200 C 89.293 269.970,89.375 270.285,89.476 269.900 C 89.576 269.515,89.576 268.885,89.476 268.500 C 89.375 268.115,89.293 268.430,89.293 269.200 M134.967 278.200 C 134.967 282.380,135.026 284.036,135.098 281.879 C 135.171 279.723,135.170 276.303,135.098 274.279 C 135.025 272.256,134.966 274.020,134.967 278.200 M330.100 283.098 C 332.465 283.169,336.335 283.169,338.700 283.098 C 341.065 283.028,339.130 282.970,334.400 282.970 C 329.670 282.970,327.735 283.028,330.100 283.098 M55.867 299.067 C 55.497 299.436,55.529 315.909,55.900 316.138 C 56.065 316.240,56.200 312.381,56.200 307.562 C 56.200 302.743,56.185 298.800,56.167 298.800 C 56.148 298.800,56.013 298.920,55.867 299.067 M330.569 307.600 C 330.569 312.110,330.627 313.955,330.698 311.700 C 330.770 309.445,330.770 305.755,330.698 303.500 C 330.627 301.245,330.569 303.090,330.569 307.600 M288.531 303.400 C 288.533 304.940,288.605 305.521,288.692 304.691 C 288.779 303.861,288.777 302.601,288.689 301.891 C 288.600 301.181,288.529 301.860,288.531 303.400 M68.493 304.000 C 68.493 304.770,68.575 305.085,68.676 304.700 C 68.776 304.315,68.776 303.685,68.676 303.300 C 68.575 302.915,68.493 303.230,68.493 304.000 M151.100 307.093 C 152.035 307.177,153.565 307.177,154.500 307.093 C 155.435 307.009,154.670 306.940,152.800 306.940 C 150.930 306.940,150.165 307.009,151.100 307.093 M334.300 307.093 C 335.235 307.177,336.765 307.177,337.700 307.093 C 338.635 307.009,337.870 306.940,336.000 306.940 C 334.130 306.940,333.365 307.009,334.300 307.093 M59.100 307.489 C 59.815 307.578,60.985 307.578,61.700 307.489 C 62.415 307.401,61.830 307.328,60.400 307.328 C 58.970 307.328,58.385 307.401,59.100 307.489 M288.534 311.200 C 288.534 312.850,288.605 313.525,288.691 312.700 C 288.778 311.875,288.778 310.525,288.691 309.700 C 288.605 308.875,288.534 309.550,288.534 311.200 M150.505 309.087 C 151.114 309.179,152.014 309.177,152.505 309.082 C 152.997 308.987,152.500 308.911,151.400 308.914 C 150.300 308.917,149.897 308.995,150.505 309.087 M333.900 309.082 C 334.395 309.178,335.205 309.178,335.700 309.082 C 336.195 308.987,335.790 308.909,334.800 308.909 C 333.810 308.909,333.405 308.987,333.900 309.082 M104.500 311.896 C 105.765 311.975,107.835 311.975,109.100 311.896 C 110.365 311.816,109.330 311.751,106.800 311.751 C 104.270 311.751,103.235 311.816,104.500 311.896 " stroke="none" fill="#9ac3e3" fill-rule="evenodd"></path><path id="path3" d="M159.321 83.898 C 161.477 83.971,164.897 83.970,166.921 83.898 C 168.944 83.825,167.180 83.766,163.000 83.767 C 158.820 83.767,157.164 83.826,159.321 83.898 M182.700 119.899 C 185.835 119.967,190.965 119.967,194.100 119.899 C 197.235 119.832,194.670 119.776,188.400 119.776 C 182.130 119.776,179.565 119.832,182.700 119.899 M237.700 155.891 C 238.525 155.978,239.875 155.978,240.700 155.891 C 241.525 155.805,240.850 155.734,239.200 155.734 C 237.550 155.734,236.875 155.805,237.700 155.891 M235.777 167.400 C 235.777 173.780,235.832 176.334,235.899 173.076 C 235.967 169.817,235.966 164.597,235.899 161.476 C 235.831 158.354,235.776 161.020,235.777 167.400 M235.110 180.200 C 234.970 180.860,234.751 181.760,234.622 182.200 C 234.494 182.640,234.670 182.394,235.014 181.653 C 235.359 180.912,235.578 180.012,235.503 179.653 C 235.423 179.275,235.257 179.506,235.110 180.200 M167.200 186.125 C 167.200 186.194,167.785 186.779,168.500 187.425 L 169.800 188.600 168.625 187.300 C 167.530 186.088,167.200 185.816,167.200 186.125 M128.170 200.600 C 129.462 212.514,137.228 222.154,148.836 226.250 C 153.045 227.735,160.628 227.953,206.200 227.894 L 243.800 227.846 200.502 227.623 L 157.204 227.400 142.557 212.800 L 127.910 198.200 128.170 200.600 M262.975 218.900 L 261.800 220.200 263.100 219.025 C 263.815 218.379,264.400 217.794,264.400 217.725 C 264.400 217.416,264.070 217.688,262.975 218.900 M68.300 251.482 C 68.795 251.578,69.605 251.578,70.100 251.482 C 70.595 251.387,70.190 251.309,69.200 251.309 C 68.210 251.309,67.805 251.387,68.300 251.482 M104.505 251.487 C 105.114 251.579,106.014 251.577,106.505 251.482 C 106.997 251.387,106.500 251.311,105.400 251.314 C 104.300 251.317,103.897 251.395,104.505 251.487 M137.100 251.899 C 139.795 251.968,144.205 251.968,146.900 251.899 C 149.595 251.830,147.390 251.773,142.000 251.773 C 136.610 251.773,134.405 251.830,137.100 251.899 M171.388 251.992 L 184.977 252.200 185.483 253.200 C 185.798 253.824,185.990 253.960,185.994 253.562 C 186.012 251.670,185.409 251.594,171.169 251.692 L 157.800 251.784 171.388 251.992 M194.968 253.401 C 195.415 254.365,195.840 255.093,195.914 255.020 C 196.119 254.814,194.928 252.126,194.518 251.873 C 194.319 251.750,194.521 252.437,194.968 253.401 M215.119 252.300 C 214.466 253.054,213.492 255.626,213.758 255.892 C 213.847 255.981,214.141 255.367,214.411 254.527 C 214.680 253.687,215.176 252.685,215.513 252.300 C 215.849 251.915,216.034 251.600,215.924 251.600 C 215.814 251.600,215.452 251.915,215.119 252.300 M217.887 252.568 C 218.669 253.614,218.952 253.663,218.578 252.688 C 218.446 252.344,218.076 251.961,217.756 251.839 C 217.318 251.670,217.350 251.851,217.887 252.568 M262.655 252.600 C 263.580 254.179,263.600 254.203,263.600 253.711 C 263.600 253.479,263.229 252.864,262.776 252.344 L 261.953 251.400 262.655 252.600 M290.500 251.898 C 292.645 251.970,296.155 251.970,298.300 251.898 C 300.445 251.826,298.690 251.767,294.400 251.767 C 290.110 251.767,288.355 251.826,290.500 251.898 M328.123 251.899 C 330.941 251.968,335.441 251.968,338.123 251.899 C 340.805 251.830,338.500 251.773,333.000 251.773 C 327.500 251.774,325.305 251.830,328.123 251.899 M156.954 252.577 C 156.832 252.894,156.803 253.479,156.889 253.877 C 156.987 254.328,157.124 254.112,157.254 253.300 C 157.471 251.938,157.330 251.596,156.954 252.577 M97.200 253.242 C 95.439 254.298,93.763 255.851,92.714 257.400 C 92.267 258.060,92.665 257.736,93.598 256.681 C 94.531 255.626,96.218 254.232,97.347 253.585 C 98.476 252.937,99.220 252.406,99.000 252.405 C 98.780 252.404,97.970 252.781,97.200 253.242 M152.367 253.600 L 152.200 254.600 143.500 254.708 C 138.715 254.767,134.800 254.947,134.800 255.108 C 134.799 255.269,138.653 255.348,143.363 255.285 C 152.369 255.164,153.090 255.012,152.700 253.319 C 152.574 252.772,152.495 252.839,152.367 253.600 M321.782 269.200 C 321.782 278.110,321.835 281.755,321.900 277.300 C 321.964 272.845,321.964 265.555,321.900 261.100 C 321.835 256.645,321.782 260.290,321.782 269.200 M59.375 254.900 L 58.200 256.200 59.500 255.025 C 60.712 253.930,60.984 253.600,60.675 253.600 C 60.606 253.600,60.021 254.185,59.375 254.900 M114.000 253.688 C 114.000 253.766,114.855 254.533,115.900 255.392 C 116.945 256.251,117.440 256.540,117.000 256.034 C 116.222 255.139,114.000 253.402,114.000 253.688 M100.500 255.589 C 99.565 256.014,98.800 256.464,98.800 256.591 C 98.800 256.717,99.334 256.544,99.987 256.207 C 100.640 255.869,101.855 255.433,102.687 255.237 C 103.804 254.974,103.938 254.872,103.200 254.849 C 102.650 254.832,101.435 255.165,100.500 255.589 M292.518 255.098 C 294.233 255.173,296.933 255.172,298.518 255.097 C 300.103 255.021,298.700 254.959,295.400 254.960 C 292.100 254.961,290.803 255.022,292.518 255.098 M325.776 255.318 C 325.667 255.604,325.627 258.439,325.689 261.618 L 325.800 267.400 334.182 267.600 L 342.565 267.800 342.843 268.800 C 343.075 269.637,343.127 269.667,343.160 268.980 C 343.241 267.320,342.631 267.200,334.120 267.200 L 326.000 267.200 326.000 261.208 L 326.000 255.216 334.700 255.100 L 343.400 254.984 334.687 254.892 C 327.855 254.820,325.932 254.912,325.776 255.318 M73.600 255.486 C 73.930 255.609,74.695 255.960,75.300 256.265 C 75.905 256.571,76.400 256.731,76.400 256.621 C 76.400 256.307,74.098 255.196,73.520 255.232 C 73.171 255.253,73.197 255.336,73.600 255.486 M110.733 256.241 C 111.892 256.819,113.297 257.932,113.889 258.741 C 115.850 261.422,116.146 261.354,114.273 258.652 C 113.404 257.398,110.201 255.200,109.243 255.200 C 108.913 255.200,109.583 255.669,110.733 256.241 M304.200 256.067 C 304.640 256.310,305.369 256.800,305.819 257.155 C 306.270 257.510,306.132 257.305,305.513 256.700 C 304.894 256.095,304.165 255.605,303.894 255.612 C 303.622 255.619,303.760 255.823,304.200 256.067 M264.428 256.200 C 264.428 256.420,264.686 257.050,265.000 257.600 C 265.314 258.150,265.572 258.420,265.572 258.200 C 265.572 257.980,265.314 257.350,265.000 256.800 C 264.686 256.250,264.428 255.980,264.428 256.200 M192.654 257.600 C 192.789 258.150,193.145 259.140,193.445 259.800 C 193.884 260.764,193.943 260.803,193.746 260.000 C 193.611 259.450,193.255 258.460,192.955 257.800 C 192.516 256.836,192.457 256.797,192.654 257.600 M212.444 258.844 C 212.198 259.551,212.066 260.200,212.152 260.285 C 212.238 260.371,212.509 259.862,212.756 259.156 C 213.002 258.449,213.134 257.800,213.048 257.715 C 212.962 257.629,212.691 258.138,212.444 258.844 M197.029 258.800 C 197.176 259.350,197.464 260.070,197.667 260.400 C 197.925 260.817,197.957 260.695,197.771 260.000 C 197.624 259.450,197.336 258.730,197.133 258.400 C 196.875 257.983,196.843 258.105,197.029 258.800 M215.768 259.814 C 215.430 260.624,215.236 261.369,215.337 261.470 C 215.438 261.571,215.739 260.990,216.007 260.179 C 216.362 259.102,216.587 258.852,216.841 259.252 C 217.070 259.615,217.190 259.639,217.194 259.324 C 217.209 258.169,216.329 258.471,215.768 259.814 M266.034 259.800 C 266.034 260.020,266.378 260.830,266.800 261.600 C 267.222 262.370,267.566 262.820,267.566 262.600 C 267.566 262.380,267.222 261.570,266.800 260.800 C 266.378 260.030,266.034 259.580,266.034 259.800 M254.865 261.017 C 254.195 262.488,254.323 262.802,255.047 261.465 C 255.386 260.840,255.588 260.254,255.496 260.163 C 255.405 260.071,255.121 260.456,254.865 261.017 M262.434 260.200 C 262.434 260.420,262.778 261.230,263.200 262.000 C 263.622 262.770,263.966 263.220,263.966 263.000 C 263.966 262.780,263.622 261.970,263.200 261.200 C 262.778 260.430,262.434 259.980,262.434 260.200 M234.646 262.246 C 234.292 263.285,234.072 264.205,234.156 264.290 C 234.241 264.374,234.600 263.593,234.954 262.554 C 235.308 261.515,235.528 260.595,235.444 260.510 C 235.359 260.426,235.000 261.207,234.646 262.246 M311.301 261.800 C 311.305 262.680,311.387 262.993,311.483 262.495 C 311.579 261.998,311.575 261.278,311.475 260.895 C 311.375 260.513,311.296 260.920,311.301 261.800 M257.665 263.417 C 256.995 264.888,257.123 265.202,257.847 263.865 C 258.186 263.240,258.388 262.654,258.296 262.563 C 258.205 262.471,257.921 262.856,257.665 263.417 M253.275 264.619 C 252.070 267.100,252.205 267.447,253.446 265.061 C 254.001 263.994,254.387 263.053,254.303 262.970 C 254.219 262.886,253.757 263.628,253.275 264.619 M264.028 263.800 C 264.028 264.020,264.286 264.650,264.600 265.200 C 264.914 265.750,265.172 266.020,265.172 265.800 C 265.172 265.580,264.914 264.950,264.600 264.400 C 264.286 263.850,264.028 263.580,264.028 263.800 M237.046 266.246 C 236.692 267.285,236.472 268.205,236.556 268.290 C 236.641 268.374,237.000 267.593,237.354 266.554 C 237.708 265.515,237.928 264.595,237.844 264.510 C 237.759 264.426,237.400 265.207,237.046 266.246 M306.089 265.917 L 305.179 267.400 306.189 266.278 C 306.745 265.660,307.200 264.985,307.200 264.778 C 307.200 264.190,307.065 264.328,306.089 265.917 M120.893 266.800 C 120.893 267.570,120.975 267.885,121.076 267.500 C 121.176 267.115,121.176 266.485,121.076 266.100 C 120.975 265.715,120.893 266.030,120.893 266.800 M116.940 269.200 C 116.940 271.070,117.009 271.835,117.093 270.900 C 117.177 269.965,117.177 268.435,117.093 267.500 C 117.009 266.565,116.940 267.330,116.940 269.200 M256.065 267.017 C 255.395 268.488,255.523 268.802,256.247 267.465 C 256.586 266.840,256.788 266.254,256.696 266.163 C 256.605 266.071,256.321 266.456,256.065 267.017 M232.444 268.444 C 232.198 269.151,232.066 269.800,232.152 269.885 C 232.238 269.971,232.509 269.462,232.756 268.756 C 233.002 268.049,233.134 267.400,233.048 267.315 C 232.962 267.229,232.691 267.738,232.444 268.444 M308.575 268.500 L 307.400 269.800 308.700 268.625 C 309.415 267.979,310.000 267.394,310.000 267.325 C 310.000 267.016,309.670 267.288,308.575 268.500 M292.300 268.697 C 293.895 268.773,296.505 268.773,298.100 268.697 C 299.695 268.621,298.390 268.559,295.200 268.559 C 292.010 268.559,290.705 268.621,292.300 268.697 M235.446 270.646 C 235.092 271.685,234.872 272.605,234.956 272.690 C 235.041 272.774,235.400 271.993,235.754 270.954 C 236.108 269.915,236.328 268.995,236.244 268.910 C 236.159 268.826,235.800 269.607,235.446 270.646 M254.465 270.617 C 253.795 272.088,253.923 272.402,254.647 271.065 C 254.986 270.440,255.188 269.854,255.096 269.763 C 255.005 269.671,254.721 270.056,254.465 270.617 M120.893 271.200 C 120.893 271.970,120.975 272.285,121.076 271.900 C 121.176 271.515,121.176 270.885,121.076 270.500 C 120.975 270.115,120.893 270.430,120.893 271.200 M138.721 270.699 C 140.988 270.770,144.588 270.770,146.721 270.698 C 148.855 270.626,147.000 270.568,142.600 270.568 C 138.200 270.568,136.455 270.627,138.721 270.699 M325.690 276.900 L 325.800 283.400 334.862 283.600 C 339.847 283.710,343.841 283.665,343.739 283.500 C 343.637 283.335,339.603 283.200,334.776 283.200 L 326.000 283.200 326.000 277.008 L 326.000 270.817 333.900 270.700 L 341.800 270.582 333.690 270.491 L 325.580 270.400 325.690 276.900 M93.693 272.000 C 93.693 272.770,93.775 273.085,93.876 272.700 C 93.976 272.315,93.976 271.685,93.876 271.300 C 93.775 270.915,93.693 271.230,93.693 272.000 M291.513 271.895 C 292.676 271.976,294.476 271.976,295.513 271.893 C 296.551 271.811,295.600 271.745,293.400 271.746 C 291.200 271.747,290.351 271.814,291.513 271.895 M304.400 273.000 C 305.146 273.770,305.847 274.400,305.957 274.400 C 306.067 274.400,305.546 273.770,304.800 273.000 C 304.054 272.230,303.353 271.600,303.243 271.600 C 303.133 271.600,303.654 272.230,304.400 273.000 M225.299 272.900 C 225.400 273.175,225.798 274.357,226.182 275.526 C 226.567 276.695,226.952 277.581,227.038 277.495 C 227.241 277.293,225.592 272.400,225.320 272.400 C 225.207 272.400,225.197 272.625,225.299 272.900 M253.206 273.700 C 253.200 274.343,253.836 274.400,261.000 274.400 C 265.290 274.400,268.800 274.265,268.800 274.100 C 268.801 273.935,265.441 273.853,261.335 273.918 C 255.561 274.008,253.795 273.918,253.541 273.518 C 253.297 273.134,253.211 273.181,253.206 273.700 M222.229 274.400 C 222.376 274.950,222.664 275.670,222.867 276.000 C 223.125 276.417,223.157 276.295,222.971 275.600 C 222.824 275.050,222.536 274.330,222.333 274.000 C 222.075 273.583,222.043 273.705,222.229 274.400 M77.701 277.400 C 77.705 278.280,77.787 278.593,77.883 278.095 C 77.979 277.598,77.975 276.878,77.875 276.495 C 77.775 276.113,77.696 276.520,77.701 277.400 M81.693 277.200 C 81.693 277.970,81.775 278.285,81.876 277.900 C 81.976 277.515,81.976 276.885,81.876 276.500 C 81.775 276.115,81.693 276.430,81.693 277.200 M205.644 278.044 C 205.398 278.751,205.266 279.400,205.352 279.485 C 205.438 279.571,205.709 279.062,205.956 278.356 C 206.202 277.649,206.334 277.000,206.248 276.915 C 206.162 276.829,205.891 277.338,205.644 278.044 M256.523 277.499 C 259.120 277.569,263.260 277.568,265.723 277.498 C 268.185 277.428,266.060 277.371,261.000 277.372 C 255.940 277.372,253.925 277.429,256.523 277.499 M303.549 277.800 C 303.765 278.240,304.234 278.960,304.593 279.400 L 305.244 280.200 304.851 279.400 C 304.635 278.960,304.166 278.240,303.807 277.800 L 303.156 277.000 303.549 277.800 M223.854 278.800 C 223.989 279.350,224.345 280.340,224.645 281.000 C 225.084 281.964,225.143 282.003,224.946 281.200 C 224.811 280.650,224.455 279.660,224.155 279.000 C 223.716 278.036,223.657 277.997,223.854 278.800 M112.600 280.678 C 111.500 281.694,110.960 282.332,111.400 282.095 C 112.162 281.686,115.153 278.783,114.778 278.816 C 114.680 278.825,113.700 279.663,112.600 280.678 M274.834 279.400 C 274.834 279.620,275.178 280.430,275.600 281.200 C 276.022 281.970,276.366 282.420,276.366 282.200 C 276.366 281.980,276.022 281.170,275.600 280.400 C 275.178 279.630,274.834 279.180,274.834 279.400 M116.000 282.600 C 115.028 283.590,114.323 284.400,114.433 284.400 C 114.543 284.400,115.428 283.590,116.400 282.600 C 117.372 281.610,118.077 280.800,117.967 280.800 C 117.857 280.800,116.972 281.610,116.000 282.600 M271.628 281.000 C 271.628 281.220,271.886 281.850,272.200 282.400 C 272.514 282.950,272.772 283.220,272.772 283.000 C 272.772 282.780,272.514 282.150,272.200 281.600 C 271.886 281.050,271.628 280.780,271.628 281.000 M56.000 281.864 C 56.000 282.082,56.495 282.697,57.100 283.230 L 58.200 284.200 57.200 283.000 C 56.650 282.340,56.155 281.725,56.100 281.633 C 56.045 281.542,56.000 281.645,56.000 281.864 M276.414 282.881 C 276.406 283.036,276.606 283.615,276.859 284.169 C 277.975 286.620,274.902 287.315,273.627 284.900 C 273.192 284.075,272.828 283.580,272.819 283.800 C 272.777 284.848,274.434 286.800,275.366 286.800 C 276.401 286.800,277.610 285.859,277.586 285.071 C 277.570 284.550,276.437 282.432,276.414 282.881 M67.511 283.493 C 68.451 283.578,69.891 283.577,70.711 283.491 C 71.530 283.405,70.760 283.336,69.000 283.337 C 67.240 283.339,66.570 283.409,67.511 283.493 M95.607 283.764 C 96.249 284.590,99.824 286.396,100.800 286.387 C 101.130 286.384,100.349 285.949,99.065 285.421 C 97.781 284.893,96.344 284.132,95.872 283.731 C 95.035 283.018,95.028 283.019,95.607 283.764 M103.891 283.489 C 104.601 283.577,105.861 283.579,106.691 283.492 C 107.521 283.405,106.940 283.333,105.400 283.331 C 103.860 283.329,103.181 283.400,103.891 283.489 M244.549 284.262 C 244.193 285.681,244.827 286.585,246.240 286.671 L 247.400 286.741 246.200 286.459 C 245.120 286.205,245.005 286.027,245.046 284.688 C 245.099 282.937,244.920 282.783,244.549 284.262 M111.600 285.432 C 110.390 285.951,109.670 286.377,110.000 286.379 C 110.711 286.383,114.000 284.936,114.000 284.620 C 114.000 284.499,113.955 284.420,113.900 284.445 C 113.845 284.469,112.810 284.914,111.600 285.432 M206.474 285.398 C 205.870 286.724,203.917 286.788,203.023 285.511 C 202.680 285.022,202.400 284.814,202.400 285.049 C 202.400 285.806,203.832 286.800,204.922 286.800 C 205.909 286.800,207.614 285.081,207.119 284.586 C 207.015 284.482,206.725 284.847,206.474 285.398 M311.967 285.200 C 311.824 286.054,311.586 286.200,310.338 286.200 C 309.533 286.200,308.959 286.335,309.061 286.500 C 309.791 287.678,312.618 286.298,312.300 284.919 C 312.174 284.372,312.095 284.439,311.967 285.200 M61.800 285.814 C 62.460 286.117,63.360 286.360,63.800 286.355 C 64.240 286.350,63.790 286.091,62.800 285.779 C 60.579 285.080,60.222 285.092,61.800 285.814 M134.273 285.754 C 134.149 286.078,133.542 286.418,132.924 286.511 L 131.800 286.680 132.851 286.740 C 133.841 286.796,135.159 285.825,134.706 285.373 C 134.592 285.259,134.397 285.430,134.273 285.754 M285.600 285.444 C 285.600 286.532,288.390 287.388,288.955 286.472 C 289.067 286.292,288.598 286.227,287.914 286.327 C 287.021 286.458,286.518 286.303,286.135 285.779 C 285.841 285.376,285.600 285.225,285.600 285.444 M74.726 285.807 C 74.613 285.921,73.458 286.184,72.160 286.391 L 69.800 286.768 72.080 286.615 C 73.990 286.487,76.731 285.650,75.367 285.612 C 75.128 285.605,74.840 285.693,74.726 285.807 M172.576 286.038 C 172.427 286.279,171.709 286.407,170.981 286.322 C 170.252 286.237,169.744 286.310,169.852 286.484 C 170.189 287.029,172.279 286.828,172.800 286.200 C 173.074 285.870,173.197 285.600,173.073 285.600 C 172.949 285.600,172.725 285.797,172.576 286.038 M226.768 286.100 C 227.060 286.485,227.794 286.800,228.400 286.800 C 229.006 286.800,229.740 286.485,230.032 286.100 C 230.482 285.504,230.478 285.475,230.001 285.900 C 229.692 286.175,228.972 286.400,228.400 286.400 C 227.828 286.400,227.108 286.175,226.799 285.900 C 226.322 285.475,226.318 285.504,226.768 286.100 M64.833 286.545 C 64.925 286.624,66.080 286.787,67.400 286.907 C 68.849 287.038,69.483 286.992,69.000 286.790 C 68.230 286.469,64.493 286.249,64.833 286.545 M102.305 286.683 C 102.802 286.779,103.522 286.775,103.905 286.675 C 104.287 286.575,103.880 286.496,103.000 286.501 C 102.120 286.505,101.807 286.587,102.305 286.683 M106.700 286.682 C 107.195 286.778,108.005 286.778,108.500 286.682 C 108.995 286.587,108.590 286.509,107.600 286.509 C 106.610 286.509,106.205 286.587,106.700 286.682 M328.323 286.699 C 331.031 286.768,335.351 286.768,337.923 286.699 C 340.495 286.629,338.280 286.572,333.000 286.573 C 327.720 286.573,325.615 286.630,328.323 286.699 M58.515 299.096 C 59.788 299.176,61.768 299.175,62.915 299.094 C 64.062 299.014,63.020 298.949,60.600 298.950 C 58.180 298.951,57.242 299.016,58.515 299.096 M147.860 299.100 C 147.758 299.265,149.142 299.352,150.937 299.292 C 156.544 299.107,157.179 298.937,152.524 298.867 C 150.062 298.830,147.963 298.935,147.860 299.100 M191.789 299.218 C 191.641 299.457,191.628 299.761,191.760 299.893 C 191.892 300.025,192.000 299.923,192.000 299.667 C 192.000 298.974,205.877 299.007,206.109 299.700 C 206.206 299.988,206.258 299.945,206.233 299.600 C 206.178 298.842,192.249 298.473,191.789 299.218 M286.579 299.311 C 286.471 299.592,286.435 303.417,286.500 307.811 L 286.618 315.800 286.709 307.512 L 286.800 299.223 292.100 299.099 L 297.400 298.975 292.087 298.887 C 288.079 298.821,286.727 298.925,286.579 299.311 M333.300 299.096 C 334.565 299.175,336.635 299.175,337.900 299.096 C 339.165 299.016,338.130 298.951,335.600 298.951 C 333.070 298.951,332.035 299.016,333.300 299.096 M252.000 307.600 C 252.000 316.448,251.938 316.721,250.231 315.315 C 249.465 314.683,249.468 314.703,250.267 315.570 C 252.176 317.643,252.400 316.806,252.400 307.613 C 252.400 302.986,252.310 299.200,252.200 299.200 C 252.090 299.200,252.000 302.980,252.000 307.600 M67.044 300.380 C 67.288 300.721,67.688 301.360,67.932 301.800 C 68.176 302.240,68.381 302.385,68.388 302.122 C 68.395 301.860,67.995 301.221,67.500 300.703 C 67.005 300.185,66.800 300.040,67.044 300.380 M57.769 300.937 C 57.655 301.233,57.625 302.808,57.702 304.437 L 57.841 307.400 57.921 304.117 L 58.000 300.834 61.100 300.697 L 64.200 300.561 61.087 300.480 C 58.792 300.421,57.921 300.541,57.769 300.937 M151.100 300.693 C 152.035 300.777,153.565 300.777,154.500 300.693 C 155.435 300.609,154.670 300.540,152.800 300.540 C 150.930 300.540,150.165 300.609,151.100 300.693 M193.700 300.691 C 194.525 300.778,195.875 300.778,196.700 300.691 C 197.525 300.605,196.850 300.534,195.200 300.534 C 193.550 300.534,192.875 300.605,193.700 300.691 M201.300 300.691 C 202.125 300.778,203.475 300.778,204.300 300.691 C 205.125 300.605,204.450 300.534,202.800 300.534 C 201.150 300.534,200.475 300.605,201.300 300.691 M290.515 300.696 C 291.788 300.776,293.768 300.775,294.915 300.694 C 296.062 300.614,295.020 300.549,292.600 300.550 C 290.180 300.551,289.242 300.616,290.515 300.696 M332.481 303.900 L 332.563 307.400 332.697 304.116 L 332.832 300.832 336.116 300.697 L 339.400 300.563 335.900 300.481 L 332.400 300.400 332.481 303.900 M103.872 302.619 C 102.932 304.589,103.064 304.924,104.047 303.062 C 104.493 302.216,104.787 301.454,104.701 301.367 C 104.614 301.281,104.241 301.844,103.872 302.619 M105.843 302.233 C 105.467 303.213,105.579 303.478,106.037 302.692 C 106.264 302.302,106.618 302.088,106.825 302.215 C 107.031 302.343,107.200 302.257,107.200 302.024 C 107.200 301.360,106.113 301.528,105.843 302.233 M343.314 303.800 C 343.317 304.900,343.395 305.303,343.487 304.695 C 343.579 304.086,343.577 303.186,343.482 302.695 C 343.387 302.203,343.311 302.700,343.314 303.800 M104.865 304.617 C 104.195 306.088,104.323 306.402,105.047 305.065 C 105.386 304.440,105.588 303.854,105.496 303.763 C 105.405 303.671,105.121 304.056,104.865 304.617 M245.256 306.218 C 245.974 307.218,246.830 308.253,247.159 308.518 C 247.487 308.783,246.979 307.965,246.030 306.700 C 243.987 303.978,243.372 303.595,245.256 306.218 M102.272 306.219 C 101.332 308.189,101.464 308.524,102.447 306.662 C 102.893 305.816,103.187 305.054,103.101 304.967 C 103.014 304.881,102.641 305.444,102.272 306.219 M243.970 307.300 C 244.919 308.565,245.776 309.600,245.873 309.600 C 246.146 309.600,243.515 306.025,242.841 305.482 C 242.513 305.217,243.021 306.035,243.970 307.300 M288.399 306.500 C 288.400 306.665,290.245 306.771,292.500 306.736 C 296.765 306.669,296.281 306.498,291.299 306.309 C 289.704 306.249,288.399 306.335,288.399 306.500 M158.441 307.434 C 157.693 307.965,157.278 308.400,157.519 308.400 C 157.759 308.400,158.460 307.956,159.078 307.413 C 160.491 306.169,160.208 306.179,158.441 307.434 M296.800 307.319 C 296.800 307.872,296.172 307.992,292.700 308.102 L 288.600 308.231 292.713 308.316 C 296.697 308.397,298.083 307.950,297.049 306.916 C 296.912 306.779,296.800 306.960,296.800 307.319 M332.400 312.371 C 332.400 315.216,332.276 315.980,331.792 316.130 C 331.366 316.262,331.396 316.300,331.892 316.255 C 332.623 316.190,333.424 308.797,332.700 308.799 C 332.535 308.800,332.400 310.407,332.400 312.371 M57.600 312.647 C 57.600 315.974,57.570 316.086,56.742 315.869 C 56.130 315.709,56.008 315.768,56.315 316.075 C 57.453 317.213,58.000 316.087,58.000 312.613 C 58.000 310.736,57.910 309.200,57.800 309.200 C 57.690 309.200,57.600 310.751,57.600 312.647 M113.824 313.400 C 114.469 315.249,114.493 316.000,113.908 316.000 C 113.586 316.000,113.127 315.595,112.888 315.100 C 112.649 314.605,112.442 314.391,112.427 314.624 C 112.373 315.466,113.479 316.532,114.142 316.278 C 114.958 315.965,114.964 314.914,114.158 313.600 C 113.753 312.940,113.640 312.872,113.824 313.400 M288.399 314.476 C 288.400 314.627,290.462 314.807,292.982 314.876 C 295.501 314.944,297.436 314.876,297.282 314.725 C 296.908 314.360,288.398 314.121,288.399 314.476 M292.200 316.000 L 287.000 316.237 292.076 316.318 C 295.121 316.367,297.252 316.240,297.400 316.000 C 297.536 315.780,297.592 315.637,297.524 315.682 C 297.456 315.727,295.060 315.870,292.200 316.000 " stroke="none" fill="#836991" fill-rule="evenodd"></path><path id="path4" d="M178.000 83.498 L 200.000 83.607 200.000 105.351 C 200.000 129.213,200.182 131.649,202.345 136.799 C 205.575 144.485,212.347 151.008,219.804 153.615 C 225.192 155.498,226.741 155.600,250.032 155.600 L 271.993 155.600 272.102 178.200 L 272.210 200.800 272.205 178.100 L 272.200 155.400 254.161 155.296 L 236.122 155.192 235.875 150.576 C 234.820 130.890,222.675 120.076,201.104 119.615 C 200.455 119.601,200.401 118.385,200.304 101.500 L 200.200 83.400 178.100 83.395 L 156.000 83.390 178.000 83.498 M127.793 155.600 C 127.793 180.570,127.841 190.785,127.900 178.300 C 127.959 165.815,127.959 145.385,127.900 132.900 C 127.841 120.415,127.793 130.630,127.793 155.600 M170.995 122.777 C 169.647 123.324,166.790 126.728,165.664 129.130 L 164.600 131.400 164.485 154.778 C 164.373 177.344,164.398 178.249,165.186 180.843 C 166.100 183.852,168.351 187.020,170.459 188.264 L 171.800 189.055 171.800 155.727 C 171.800 137.397,171.800 122.411,171.800 122.425 C 171.800 122.439,171.438 122.598,170.995 122.777 M263.578 218.700 L 262.200 220.200 263.700 218.822 C 265.096 217.538,265.384 217.200,265.078 217.200 C 265.012 217.200,264.337 217.875,263.578 218.700 M156.880 252.080 C 156.616 252.344,156.425 253.019,156.454 253.580 L 156.509 254.600 156.693 253.600 C 156.794 253.050,157.061 252.375,157.287 252.100 C 157.811 251.462,157.513 251.447,156.880 252.080 M58.975 254.900 L 57.800 256.200 59.100 255.025 C 60.312 253.930,60.584 253.600,60.275 253.600 C 60.206 253.600,59.621 254.185,58.975 254.900 M139.300 255.498 C 141.665 255.569,145.535 255.569,147.900 255.498 C 150.265 255.428,148.330 255.370,143.600 255.370 C 138.870 255.370,136.935 255.428,139.300 255.498 M292.300 255.497 C 293.895 255.573,296.505 255.573,298.100 255.497 C 299.695 255.421,298.390 255.359,295.200 255.359 C 292.010 255.359,290.705 255.421,292.300 255.497 M330.078 255.498 C 332.431 255.569,336.391 255.569,338.878 255.499 C 341.365 255.429,339.440 255.371,334.600 255.370 C 329.760 255.370,327.725 255.428,330.078 255.498 M333.969 267.100 C 339.661 267.181,342.330 267.366,342.769 267.709 C 343.326 268.142,343.336 268.118,342.851 267.500 C 342.355 266.868,341.499 266.809,334.051 266.891 L 325.800 266.982 333.969 267.100 M292.500 268.297 C 294.205 268.372,296.995 268.372,298.700 268.297 C 300.405 268.222,299.010 268.161,295.600 268.161 C 292.190 268.161,290.795 268.222,292.500 268.297 M116.493 271.600 C 116.493 272.370,116.575 272.685,116.676 272.300 C 116.776 271.915,116.776 271.285,116.676 270.900 C 116.575 270.515,116.493 270.830,116.493 271.600 M77.309 277.600 C 77.309 278.590,77.387 278.995,77.482 278.500 C 77.578 278.005,77.578 277.195,77.482 276.700 C 77.387 276.205,77.309 276.610,77.309 277.600 M256.523 277.899 C 259.120 277.969,263.260 277.968,265.723 277.898 C 268.185 277.828,266.060 277.771,261.000 277.772 C 255.940 277.772,253.925 277.829,256.523 277.899 M286.179 299.311 C 286.071 299.592,286.032 303.417,286.092 307.811 L 286.202 315.800 286.401 307.300 C 286.596 298.971,286.577 298.274,286.179 299.311 M147.370 307.600 C 147.370 312.330,147.428 314.265,147.498 311.900 C 147.569 309.535,147.569 305.665,147.498 303.300 C 147.428 300.935,147.370 302.870,147.370 307.600 M238.169 307.400 C 238.170 312.020,238.228 313.855,238.299 311.478 C 238.370 309.101,238.369 305.321,238.298 303.078 C 238.227 300.835,238.169 302.780,238.169 307.400 M252.569 307.400 C 252.570 312.020,252.628 313.855,252.699 311.478 C 252.770 309.101,252.769 305.321,252.698 303.078 C 252.627 300.835,252.569 302.780,252.569 307.400 M197.678 308.276 C 197.635 312.498,197.735 316.037,197.900 316.139 C 198.065 316.242,198.153 313.957,198.096 311.063 C 197.907 301.495,197.758 300.496,197.678 308.276 M332.937 303.800 C 332.939 305.560,333.009 306.230,333.093 305.289 C 333.178 304.349,333.177 302.909,333.091 302.089 C 333.005 301.270,332.936 302.040,332.937 303.800 M200.167 308.600 C 200.167 312.780,200.226 314.436,200.298 312.279 C 200.371 310.123,200.370 306.703,200.298 304.679 C 200.225 302.656,200.166 304.420,200.167 308.600 M343.714 303.800 C 343.717 304.900,343.795 305.303,343.887 304.695 C 343.979 304.086,343.977 303.186,343.882 302.695 C 343.787 302.203,343.711 302.700,343.714 303.800 M158.101 303.800 C 158.105 304.680,158.187 304.993,158.283 304.495 C 158.379 303.998,158.375 303.278,158.275 302.895 C 158.175 302.513,158.096 302.920,158.101 303.800 M332.940 312.400 C 332.940 314.270,333.009 315.035,333.093 314.100 C 333.177 313.165,333.177 311.635,333.093 310.700 C 333.009 309.765,332.940 310.530,332.940 312.400 M290.700 314.295 C 291.855 314.376,293.745 314.376,294.900 314.295 C 296.055 314.214,295.110 314.148,292.800 314.148 C 290.490 314.148,289.545 314.214,290.700 314.295 " stroke="none" fill="#c8e6f3" fill-rule="evenodd"></path></g></svg>