<?xml version="1.0" encoding="UTF-8"?>
<!DOCTYPE svg PUBLIC "-//W3C//DTD SVG 1.1//EN" "http://www.w3.org/Graphics/SVG/1.1/DTD/svg11.dtd">
<svg xmlns="http://www.w3.org/2000/svg" version="1.1" width="960px" height="960px" style="shape-rendering:geometricPrecision; text-rendering:geometricPrecision; image-rendering:optimizeQuality; fill-rule:evenodd; clip-rule:evenodd" xmlns:xlink="http://www.w3.org/1999/xlink">
<g><path style="opacity:1" fill="#fefefe" d="M -0.5,-0.5 C 319.5,-0.5 639.5,-0.5 959.5,-0.5C 959.5,319.5 959.5,639.5 959.5,959.5C 639.5,959.5 319.5,959.5 -0.5,959.5C -0.5,639.5 -0.5,319.5 -0.5,-0.5 Z"/></g>
<g><path style="opacity:1" fill="#234ea6" d="M 379.5,200.5 C 407.833,229.167 436.167,257.833 464.5,286.5C 460.167,286.5 455.833,286.5 451.5,286.5C 423.5,258.167 395.5,229.833 367.5,201.5C 371.298,200.517 375.298,200.183 379.5,200.5 Z"/></g>
<g><path style="opacity:1" fill="#1f58ae" d="M 379.5,200.5 C 385.5,200.5 391.5,200.5 397.5,200.5C 424.5,228.167 451.833,255.5 479.5,282.5C 479.5,283.833 479.5,285.167 479.5,286.5C 474.5,286.5 469.5,286.5 464.5,286.5C 436.167,257.833 407.833,229.167 379.5,200.5 Z"/></g>
<g><path style="opacity:1" fill="#1a64b7" d="M 397.5,200.5 C 403.5,200.5 409.5,200.5 415.5,200.5C 436.5,222.167 457.833,243.5 479.5,264.5C 479.5,270.5 479.5,276.5 479.5,282.5C 451.833,255.5 424.5,228.167 397.5,200.5 Z"/></g>
<g><path style="opacity:1" fill="#1572c2" d="M 415.5,200.5 C 422.167,200.5 428.833,200.5 435.5,200.5C 449.833,215.5 464.5,230.167 479.5,244.5C 479.5,251.167 479.5,257.833 479.5,264.5C 457.833,243.5 436.5,222.167 415.5,200.5 Z"/></g>
<g><path style="opacity:1" fill="#1081cd" d="M 435.5,200.5 C 440.167,200.5 444.833,200.5 449.5,200.5C 459.167,210.833 469.167,220.833 479.5,230.5C 479.5,235.167 479.5,239.833 479.5,244.5C 464.5,230.167 449.833,215.5 435.5,200.5 Z"/></g>
<g><path style="opacity:1" fill="#0994db" d="M 449.5,200.5 C 459.5,200.5 469.5,200.5 479.5,200.5C 479.5,210.5 479.5,220.5 479.5,230.5C 469.167,220.833 459.167,210.833 449.5,200.5 Z"/></g>
<g><path style="opacity:1" fill="#2647a1" d="M 367.5,201.5 C 395.5,229.833 423.5,258.167 451.5,286.5C 447.167,286.5 442.833,286.5 438.5,286.5C 411.45,258.45 383.784,231.116 355.5,204.5C 359.2,202.755 363.2,201.755 367.5,201.5 Z"/></g>
<g><path style="opacity:1" fill="#28419d" d="M 355.5,204.5 C 383.784,231.116 411.45,258.45 438.5,286.5C 433.968,286.182 429.634,286.515 425.5,287.5C 424.833,287.5 424.167,287.5 423.5,287.5C 397.783,260.783 371.45,234.783 344.5,209.5C 347.74,207.049 351.407,205.382 355.5,204.5 Z"/></g>
<g><path style="opacity:1" fill="#2a3a98" d="M 344.5,209.5 C 371.45,234.783 397.783,260.783 423.5,287.5C 418.063,287.89 413.396,289.89 409.5,293.5C 407.589,294.075 405.922,295.075 404.5,296.5C 380.217,270.55 355.217,245.217 329.5,220.5C 333.652,215.682 338.652,212.015 344.5,209.5 Z"/></g>
<g><path style="opacity:1" fill="#2e3191" d="M 329.5,220.5 C 355.217,245.217 380.217,270.55 404.5,296.5C 398.074,303.252 394.408,311.252 393.5,320.5C 392.668,350.331 392.168,380.331 392,410.5C 363.632,381.965 335.132,353.632 306.5,325.5C 306.333,304.164 306.5,282.831 307,261.5C 309.842,245.139 317.342,231.473 329.5,220.5 Z"/></g>
<g><path style="opacity:1" fill="#a4d0eb" d="M 429.5,287.5 C 434.833,287.5 440.167,287.5 445.5,287.5C 443.181,299.295 441.681,311.962 441,325.5C 440.667,325.167 440.333,324.833 440,324.5C 438.733,369.491 438.233,414.491 438.5,459.5C 432.642,459.822 426.975,459.489 421.5,458.5C 423.167,458.5 424.833,458.5 426.5,458.5C 426.333,411.499 426.5,364.499 427,317.5C 427.333,317.833 427.667,318.167 428,318.5C 428.588,308.167 429.088,297.834 429.5,287.5 Z"/></g>
<g><path style="opacity:1" fill="#a0cbe9" d="M 445.5,287.5 C 449.167,287.5 452.833,287.5 456.5,287.5C 456.056,297.849 456.723,308.016 458.5,318C 456.786,326.328 455.619,335.494 455,345.5C 454.667,345.167 454.333,344.833 454,344.5C 452.676,382.821 452.176,421.154 452.5,459.5C 448.833,459.5 445.167,459.5 441.5,459.5C 440.5,459.5 439.5,459.5 438.5,459.5C 438.233,414.491 438.733,369.491 440,324.5C 440.333,324.833 440.667,325.167 441,325.5C 441.681,311.962 443.181,299.295 445.5,287.5 Z"/></g>
<g><path style="opacity:1" fill="#99c4e4" d="M 425.5,287.5 C 429.634,286.515 433.968,286.182 438.5,286.5C 442.833,286.5 447.167,286.5 451.5,286.5C 455.833,286.5 460.167,286.5 464.5,286.5C 469.5,286.5 474.5,286.5 479.5,286.5C 478.631,299.13 479.964,311.464 483.5,323.5C 481.959,324.558 480.959,326.058 480.5,328C 479.677,332.969 478.344,337.802 476.5,342.5C 473.293,358.241 471.793,374.908 472,392.5C 471.667,392.167 471.333,391.833 471,391.5C 470.5,414.164 470.333,436.831 470.5,459.5C 464.5,459.5 458.5,459.5 452.5,459.5C 452.176,421.154 452.676,382.821 454,344.5C 454.333,344.833 454.667,345.167 455,345.5C 455.619,335.494 456.786,326.328 458.5,318C 456.723,308.016 456.056,297.849 456.5,287.5C 452.833,287.5 449.167,287.5 445.5,287.5C 440.167,287.5 434.833,287.5 429.5,287.5C 428.167,287.5 426.833,287.5 425.5,287.5 Z"/></g>
<g><path style="opacity:1" fill="#c4e8f7" d="M 479.5,200.5 C 480.498,228.995 480.831,257.662 480.5,286.5C 493.206,285.796 505.539,287.463 517.5,291.5C 517.5,315.5 517.5,339.5 517.5,363.5C 516.167,363.167 514.833,362.833 513.5,362.5C 507.562,357.901 501.895,352.901 496.5,347.5C 491.121,340.075 486.787,332.075 483.5,323.5C 479.964,311.464 478.631,299.13 479.5,286.5C 479.5,285.167 479.5,283.833 479.5,282.5C 479.5,276.5 479.5,270.5 479.5,264.5C 479.5,257.833 479.5,251.167 479.5,244.5C 479.5,239.833 479.5,235.167 479.5,230.5C 479.5,220.5 479.5,210.5 479.5,200.5 Z"/></g>
<g><path style="opacity:1" fill="#a9d6ef" d="M 423.5,287.5 C 424.167,287.5 424.833,287.5 425.5,287.5C 426.833,287.5 428.167,287.5 429.5,287.5C 429.088,297.834 428.588,308.167 428,318.5C 427.667,318.167 427.333,317.833 427,317.5C 426.5,364.499 426.333,411.499 426.5,458.5C 424.833,458.5 423.167,458.5 421.5,458.5C 416.478,457.82 412.144,455.82 408.5,452.5C 409.499,399.669 409.832,346.669 409.5,293.5C 413.396,289.89 418.063,287.89 423.5,287.5 Z"/></g>
<g><path style="opacity:1" fill="#cbebf8" d="M 517.5,291.5 C 552.581,306.968 568.581,333.968 565.5,372.5C 556.494,372.666 547.494,372.5 538.5,372C 530.72,370.766 523.72,367.933 517.5,363.5C 517.5,339.5 517.5,315.5 517.5,291.5 Z"/></g>
<g><path style="opacity:1" fill="#aeddf2" d="M 409.5,293.5 C 409.832,346.669 409.499,399.669 408.5,452.5C 401.199,447.24 396.366,440.24 394,431.5C 393.5,394.502 393.333,357.502 393.5,320.5C 394.408,311.252 398.074,303.252 404.5,296.5C 405.922,295.075 407.589,294.075 409.5,293.5 Z"/></g>
<g><path style="opacity:1" fill="#343291" d="M 393.5,320.5 C 393.333,357.502 393.5,394.502 394,431.5C 396.366,440.24 401.199,447.24 408.5,452.5C 412.144,455.82 416.478,457.82 421.5,458.5C 426.975,459.489 432.642,459.822 438.5,459.5C 439.5,459.5 440.5,459.5 441.5,459.5C 469.833,488.167 498.167,516.833 526.5,545.5C 512.5,545.5 498.5,545.5 484.5,545.5C 425.5,485.833 366.167,426.5 306.5,367.5C 306.5,353.5 306.5,339.5 306.5,325.5C 335.132,353.632 363.632,381.965 392,410.5C 392.168,380.331 392.668,350.331 393.5,320.5 Z"/></g>
<g><path style="opacity:1" fill="#96bee1" d="M 483.5,323.5 C 486.787,332.075 491.121,340.075 496.5,347.5C 495.732,348.263 495.232,349.263 495,350.5C 494.667,350.167 494.333,349.833 494,349.5C 490.833,364.638 488.333,380.638 486.5,397.5C 485.5,418.156 485.167,438.823 485.5,459.5C 480.5,459.5 475.5,459.5 470.5,459.5C 470.333,436.831 470.5,414.164 471,391.5C 471.333,391.833 471.667,392.167 472,392.5C 471.793,374.908 473.293,358.241 476.5,342.5C 478.344,337.802 479.677,332.969 480.5,328C 480.959,326.058 481.959,324.558 483.5,323.5 Z"/></g>
<g><path style="opacity:1" fill="#91b8de" d="M 496.5,347.5 C 501.895,352.901 507.562,357.901 513.5,362.5C 512.732,363.263 512.232,364.263 512,365.5C 511.667,365.167 511.333,364.833 511,364.5C 510.055,368.114 509.388,371.781 509,375.5C 508.667,375.167 508.333,374.833 508,374.5C 504.995,387.349 502.995,400.349 502,413.5C 501.667,413.167 501.333,412.833 501,412.5C 500.5,428.163 500.333,443.83 500.5,459.5C 495.5,459.5 490.5,459.5 485.5,459.5C 485.167,438.823 485.5,418.156 486.5,397.5C 488.333,380.638 490.833,364.638 494,349.5C 494.333,349.833 494.667,350.167 495,350.5C 495.232,349.263 495.732,348.263 496.5,347.5 Z"/></g>
<g><path style="opacity:1" fill="#3b3392" d="M 306.5,367.5 C 366.167,426.5 425.5,485.833 484.5,545.5C 477.5,545.5 470.5,545.5 463.5,545.5C 411.5,492.833 359.167,440.5 306.5,388.5C 306.5,381.5 306.5,374.5 306.5,367.5 Z"/></g>
<g><path style="opacity:1" fill="#1e5eb2" d="M 565.5,373.5 C 570.167,373.5 574.833,373.5 579.5,373.5C 603.5,398.167 627.833,422.5 652.5,446.5C 652.5,452.5 652.5,458.5 652.5,464.5C 623.868,436.368 595.368,408.035 567,379.5C 566.5,386.826 566.334,394.159 566.5,401.5C 566.5,405.833 566.5,410.167 566.5,414.5C 566.815,418.371 566.482,422.038 565.5,425.5C 565.5,408.167 565.5,390.833 565.5,373.5 Z"/></g>
<g><path style="opacity:1" fill="#1967b9" d="M 579.5,373.5 C 582.5,373.5 585.5,373.5 588.5,373.5C 609.5,395.167 630.833,416.5 652.5,437.5C 652.5,440.5 652.5,443.5 652.5,446.5C 627.833,422.5 603.5,398.167 579.5,373.5 Z"/></g>
<g><path style="opacity:1" fill="#1572c2" d="M 588.5,373.5 C 595.167,373.5 601.833,373.5 608.5,373.5C 622.833,388.5 637.5,403.167 652.5,417.5C 652.5,424.167 652.5,430.833 652.5,437.5C 630.833,416.5 609.5,395.167 588.5,373.5 Z"/></g>
<g><path style="opacity:1" fill="#1081cd" d="M 608.5,373.5 C 613.167,373.5 617.833,373.5 622.5,373.5C 632.167,383.833 642.167,393.833 652.5,403.5C 652.5,408.167 652.5,412.833 652.5,417.5C 637.5,403.167 622.833,388.5 608.5,373.5 Z"/></g>
<g><path style="opacity:1" fill="#0994db" d="M 622.5,373.5 C 632.5,373.5 642.5,373.5 652.5,373.5C 652.5,383.5 652.5,393.5 652.5,403.5C 642.167,393.833 632.167,383.833 622.5,373.5 Z"/></g>
<g><path style="opacity:1" fill="#89afd9" d="M 513.5,362.5 C 514.833,362.833 516.167,363.167 517.5,363.5C 523.72,367.933 530.72,370.766 538.5,372C 547.494,372.5 556.494,372.666 565.5,372.5C 594.671,372.169 623.671,372.502 652.5,373.5C 642.5,373.5 632.5,373.5 622.5,373.5C 617.833,373.5 613.167,373.5 608.5,373.5C 601.833,373.5 595.167,373.5 588.5,373.5C 585.5,373.5 582.5,373.5 579.5,373.5C 574.833,373.5 570.167,373.5 565.5,373.5C 560.833,373.5 556.167,373.5 551.5,373.5C 553.007,378.818 554.007,384.318 554.5,390C 554,391.5 553.5,393 553,394.5C 552.667,394.167 552.333,393.833 552,393.5C 548.188,396.12 546.188,399.786 546,404.5C 545.333,403.167 544.667,403.167 544,404.5C 541.862,409.345 540.195,414.345 539,419.5C 538.667,419.167 538.333,418.833 538,418.5C 535.565,431.532 533.398,445.199 531.5,459.5C 521.167,459.5 510.833,459.5 500.5,459.5C 500.333,443.83 500.5,428.163 501,412.5C 501.333,412.833 501.667,413.167 502,413.5C 502.995,400.349 504.995,387.349 508,374.5C 508.333,374.833 508.667,375.167 509,375.5C 509.388,371.781 510.055,368.114 511,364.5C 511.333,364.833 511.667,365.167 512,365.5C 512.232,364.263 512.732,363.263 513.5,362.5 Z"/></g>
<g><path style="opacity:1" fill="#2250a8" d="M 652.5,464.5 C 652.674,471.535 652.341,478.535 651.5,485.5C 623.167,457.5 594.833,429.5 566.5,401.5C 566.334,394.159 566.5,386.826 567,379.5C 595.368,408.035 623.868,436.368 652.5,464.5 Z"/></g>
<g><path style="opacity:1" fill="#453492" d="M 306.5,388.5 C 359.167,440.5 411.5,492.833 463.5,545.5C 452.833,545.5 442.167,545.5 431.5,545.5C 390.167,503.5 348.5,461.833 306.5,420.5C 306.5,409.833 306.5,399.167 306.5,388.5 Z"/></g>
<g><path style="opacity:1" fill="#7fa4d3" d="M 565.5,373.5 C 565.5,390.833 565.5,408.167 565.5,425.5C 565.5,426.833 565.5,428.167 565.5,429.5C 564.014,436.312 561.014,442.312 556.5,447.5C 549.63,454.434 541.297,458.434 531.5,459.5C 533.398,445.199 535.565,431.532 538,418.5C 538.333,418.833 538.667,419.167 539,419.5C 540.195,414.345 541.862,409.345 544,404.5C 544.667,403.167 545.333,403.167 546,404.5C 546.188,399.786 548.188,396.12 552,393.5C 552.333,393.833 552.667,394.167 553,394.5C 553.5,393 554,391.5 554.5,390C 554.007,384.318 553.007,378.818 551.5,373.5C 556.167,373.5 560.833,373.5 565.5,373.5 Z"/></g>
<g><path style="opacity:1" fill="#2547a1" d="M 566.5,401.5 C 594.833,429.5 623.167,457.5 651.5,485.5C 650.87,489.048 649.87,492.381 648.5,495.5C 621.167,468.5 593.833,441.5 566.5,414.5C 566.5,410.167 566.5,405.833 566.5,401.5 Z"/></g>
<g><path style="opacity:1" fill="#27419d" d="M 566.5,414.5 C 593.833,441.5 621.167,468.5 648.5,495.5C 647.597,499.889 645.931,503.889 643.5,507.5C 617.833,481.167 591.833,455.167 565.5,429.5C 565.5,428.167 565.5,426.833 565.5,425.5C 566.482,422.038 566.815,418.371 566.5,414.5 Z"/></g>
<g><path style="opacity:1" fill="#2a3b98" d="M 565.5,429.5 C 591.833,455.167 617.833,481.167 643.5,507.5C 640.818,513.537 637.151,518.871 632.5,523.5C 607.5,497.833 582.167,472.5 556.5,447.5C 561.014,442.312 564.014,436.312 565.5,429.5 Z"/></g>
<g><path style="opacity:1" fill="#513793" d="M 306.5,420.5 C 348.5,461.833 390.167,503.5 431.5,545.5C 422.833,545.5 414.167,545.5 405.5,545.5C 372.833,512.167 339.833,479.167 306.5,446.5C 306.5,437.833 306.5,429.167 306.5,420.5 Z"/></g>
<g><path style="opacity:1" fill="#5c3994" d="M 306.5,446.5 C 339.833,479.167 372.833,512.167 405.5,545.5C 398.825,545.666 392.158,545.5 385.5,545C 359.299,518.632 332.965,492.465 306.5,466.5C 306.5,459.833 306.5,453.167 306.5,446.5 Z"/></g>
<g><path style="opacity:1" fill="#2e3191" d="M 556.5,447.5 C 582.167,472.5 607.5,497.833 632.5,523.5C 619.59,537.284 603.59,544.618 584.5,545.5C 565.167,545.5 545.833,545.5 526.5,545.5C 498.167,516.833 469.833,488.167 441.5,459.5C 445.167,459.5 448.833,459.5 452.5,459.5C 458.5,459.5 464.5,459.5 470.5,459.5C 475.5,459.5 480.5,459.5 485.5,459.5C 490.5,459.5 495.5,459.5 500.5,459.5C 510.833,459.5 521.167,459.5 531.5,459.5C 541.297,458.434 549.63,454.434 556.5,447.5 Z"/></g>
<g><path style="opacity:1" fill="#6b4198" d="M 306.5,466.5 C 332.965,492.465 359.299,518.632 385.5,545C 392.158,545.5 398.825,545.666 405.5,545.5C 414.167,545.5 422.833,545.5 431.5,545.5C 442.167,545.5 452.833,545.5 463.5,545.5C 470.5,545.5 477.5,545.5 484.5,545.5C 498.5,545.5 512.5,545.5 526.5,545.5C 545.833,545.5 565.167,545.5 584.5,545.5C 512.64,546.825 440.64,546.825 368.5,545.5C 348.728,526.229 329.062,506.729 309.5,487C 308.906,486.536 308.239,486.369 307.5,486.5C 306.724,479.863 306.391,473.196 306.5,466.5 Z"/></g>
<g><path style="opacity:1" fill="#763f97" d="M 307.5,486.5 C 308.239,486.369 308.906,486.536 309.5,487C 329.062,506.729 348.728,526.229 368.5,545.5C 335.401,539.068 315.068,519.402 307.5,486.5 Z"/></g>
<g><path style="opacity:1" fill="#454546" d="M 158.5,602.5 C 172.6,600.983 184.767,604.983 195,614.5C 196.393,618.202 195.226,620.202 191.5,620.5C 186.196,617.181 180.529,614.348 174.5,612C 168.833,611.333 163.167,611.333 157.5,612C 145.584,616.167 142.584,623.833 148.5,635C 150.167,636 151.833,637 153.5,638C 163.489,640.998 173.489,643.998 183.5,647C 194.113,651.394 197.946,659.227 195,670.5C 192.018,679.477 185.852,684.977 176.5,687C 164.423,689.453 152.756,688.12 141.5,683C 138.679,681.178 136.179,679.011 134,676.5C 132.795,673.132 133.795,670.798 137,669.5C 141.91,672.707 147.077,675.54 152.5,678C 162.102,680.484 171.435,679.817 180.5,676C 185.211,671.86 186.711,666.694 185,660.5C 184.535,659.069 183.701,657.903 182.5,657C 169.724,652.973 157.058,648.64 144.5,644C 136.224,638.257 133.39,630.424 136,620.5C 140.421,610.573 147.921,604.573 158.5,602.5 Z"/></g>
<g><path style="opacity:1" fill="#444445" d="M 244.5,602.5 C 269.451,600.312 284.617,611.312 290,635.5C 292.912,653.812 287.745,669.312 274.5,682C 256.264,692.135 239.431,690.302 224,676.5C 214.315,660.952 211.982,644.286 217,626.5C 222.045,613.613 231.211,605.613 244.5,602.5 Z"/></g>
<g><path style="opacity:1" fill="#434344" d="M 460.5,603.5 C 465.058,602.38 467.891,604.047 469,608.5C 476.333,629.833 483.667,651.167 491,672.5C 498.977,649.39 507.477,626.556 516.5,604C 521.043,602.385 523.876,603.885 525,608.5C 532.487,629.451 539.821,650.451 547,671.5C 555.251,650.417 562.917,629.084 570,607.5C 571.691,603.787 574.525,602.621 578.5,604C 579.591,606.064 579.758,608.231 579,610.5C 569.932,635.87 560.766,661.203 551.5,686.5C 547.273,688.501 544.107,687.501 542,683.5C 534.65,662.423 527.15,641.423 519.5,620.5C 511.188,641.597 503.355,662.93 496,684.5C 495.626,685.416 495.126,686.25 494.5,687C 492.167,687.667 489.833,687.667 487.5,687C 477.605,661.365 468.105,635.531 459,609.5C 458.252,607.16 458.752,605.16 460.5,603.5 Z"/></g>
<g><path style="opacity:1" fill="#434344" d="M 622.5,603.5 C 625.119,603.232 627.619,603.565 630,604.5C 641.941,630.048 653.607,655.714 665,681.5C 665.486,686.992 662.986,688.825 657.5,687C 654.007,680.017 651.007,672.851 648.5,665.5C 633.485,665.167 618.485,665.501 603.5,666.5C 600.57,672.792 597.736,679.125 595,685.5C 592.582,687.68 589.916,688.013 587,686.5C 586.262,682.598 586.928,678.932 589,675.5C 599.704,651.189 610.871,627.189 622.5,603.5 Z"/></g>
<g><path style="opacity:1" fill="#424243" d="M 363.5,611.5 C 349.833,611.5 336.167,611.5 322.5,611.5C 322.173,621.348 322.506,631.014 323.5,640.5C 336.171,640.333 348.838,640.5 361.5,641C 363.418,642.77 363.918,644.937 363,647.5C 362.329,648.252 361.496,648.586 360.5,648.5C 347.833,648.5 335.167,648.5 322.5,648.5C 322.5,660.833 322.5,673.167 322.5,685.5C 319.783,688.145 316.95,688.145 314,685.5C 313.176,658.791 313.343,632.124 314.5,605.5C 315.025,604.808 315.692,604.308 316.5,604C 332.167,603.333 347.833,603.333 363.5,604C 365.41,604.408 366.41,605.575 366.5,607.5C 366.439,609.653 365.439,610.986 363.5,611.5 Z"/></g>
<g><path style="opacity:1" fill="#444445" d="M 377.5,603.5 C 399.503,603.333 421.503,603.5 443.5,604C 446.167,606.667 446.167,609.333 443.5,612C 434.173,612.5 424.839,612.666 415.5,612.5C 415.667,636.836 415.5,661.169 415,685.5C 412,688.167 409,688.167 406,685.5C 405.5,661.169 405.333,636.836 405.5,612.5C 396.161,612.666 386.827,612.5 377.5,612C 374.899,609.17 374.899,606.337 377.5,603.5 Z"/></g>
<g><path style="opacity:1" fill="#454546" d="M 687.5,603.5 C 700.504,603.333 713.504,603.5 726.5,604C 743.071,607.594 749.571,617.761 746,634.5C 742.909,643.917 736.409,649.417 726.5,651C 728.96,652.458 731.127,654.291 733,656.5C 738.084,665.003 743.417,673.336 749,681.5C 749.486,686.992 746.986,688.825 741.5,687C 735.667,677.833 729.833,668.667 724,659.5C 722.167,657.667 720.333,655.833 718.5,654C 710.585,652.599 702.585,652.099 694.5,652.5C 694.667,663.505 694.5,674.505 694,685.5C 691,688.167 688,688.167 685,685.5C 684.333,659.167 684.333,632.833 685,606.5C 686.045,605.627 686.878,604.627 687.5,603.5 Z"/></g>
<g><path style="opacity:1" fill="#454546" d="M 774.5,603.5 C 790.837,603.333 807.17,603.5 823.5,604C 825.673,605.865 826.007,608.031 824.5,610.5C 810.182,611.499 795.849,611.833 781.5,611.5C 781.5,621.167 781.5,630.833 781.5,640.5C 794.504,640.333 807.504,640.5 820.5,641C 822.725,643.025 823.059,645.358 821.5,648C 808.171,648.5 794.837,648.667 781.5,648.5C 781.5,658.833 781.5,669.167 781.5,679.5C 795.837,679.333 810.171,679.5 824.5,680C 825.982,682.592 825.648,684.925 823.5,687C 807.167,687.667 790.833,687.667 774.5,687C 773.667,686.167 772.833,685.333 772,684.5C 771.333,658.5 771.333,632.5 772,606.5C 772.698,605.309 773.531,604.309 774.5,603.5 Z"/></g>
<g><path style="opacity:1" fill="#fdfdfd" d="M 244.5,611.5 C 268.393,610.056 280.393,621.39 280.5,645.5C 279.133,674.401 264.8,684.568 237.5,676C 227.907,667.573 223.574,656.907 224.5,644C 224.001,628.455 230.668,617.621 244.5,611.5 Z"/></g>
<g><path style="opacity:1" fill="#909091" d="M 363.5,611.5 C 350.344,612.496 337.01,612.829 323.5,612.5C 323.5,621.833 323.5,631.167 323.5,640.5C 322.506,631.014 322.173,621.348 322.5,611.5C 336.167,611.5 349.833,611.5 363.5,611.5 Z"/></g>
<g><path style="opacity:1" fill="#fbfbfb" d="M 694.5,611.5 C 705.564,611.094 716.564,611.594 727.5,613C 737.811,618.554 740.311,626.72 735,637.5C 732.592,639.956 729.759,641.789 726.5,643C 715.839,643.5 705.172,643.667 694.5,643.5C 694.5,632.833 694.5,622.167 694.5,611.5 Z"/></g>
<g><path style="opacity:1" fill="#fbfbfb" d="M 624.5,616.5 C 627.027,618.51 628.861,621.177 630,624.5C 634.255,635.601 639.088,646.434 644.5,657C 632.153,657.833 619.82,657.666 607.5,656.5C 613.736,643.366 619.403,630.032 624.5,616.5 Z"/></g>
<g><path style="opacity:1" fill="#7f7f80" d="M 360.5,648.5 C 348.345,649.495 336.011,649.829 323.5,649.5C 323.828,661.678 323.495,673.678 322.5,685.5C 322.5,673.167 322.5,660.833 322.5,648.5C 335.167,648.5 347.833,648.5 360.5,648.5 Z"/></g>
<g><path style="opacity:1" fill="#464647" d="M 253.5,716.5 C 255.144,716.286 256.644,716.62 258,717.5C 263.833,730.5 269.667,743.5 275.5,756.5C 274.332,758.217 272.665,758.884 270.5,758.5C 269.74,754.973 268.406,751.64 266.5,748.5C 259.189,747.335 251.856,747.169 244.5,748C 243.004,751.149 241.504,754.316 240,757.5C 236.667,759.167 235.333,758.167 236,754.5C 241.574,741.688 247.407,729.021 253.5,716.5 Z"/></g>
<g><path style="opacity:1" fill="#454546" d="M 572.5,716.5 C 574.903,716.393 576.736,717.393 578,719.5C 585.333,729.5 592.667,739.5 600,749.5C 600.333,738.833 600.667,728.167 601,717.5C 602.333,716.167 603.667,716.167 605,717.5C 605.822,731.075 605.656,744.575 604.5,758C 603.056,758.781 601.723,758.614 600.5,757.5C 592.667,747.167 584.833,736.833 577,726.5C 576.667,736.833 576.333,747.167 576,757.5C 574.667,758.833 573.333,758.833 572,757.5C 571.186,743.758 571.353,730.092 572.5,716.5 Z"/></g>
<g><path style="opacity:1" fill="#454546" d="M 134.5,716.5 C 141.508,716.334 148.508,716.5 155.5,717C 162.974,720.12 165.474,725.62 163,733.5C 161.86,737.307 159.36,739.807 155.5,741C 149.843,741.499 144.176,741.666 138.5,741.5C 138.5,747.167 138.5,752.833 138.5,758.5C 136.856,758.714 135.356,758.38 134,757.5C 133.186,743.758 133.353,730.092 134.5,716.5 Z"/></g>
<g><path style="opacity:1" fill="#474748" d="M 354.5,716.5 C 361.175,716.334 367.842,716.5 374.5,717C 383.428,719.009 386.595,724.509 384,733.5C 382.093,737.039 379.26,739.539 375.5,741C 380.541,745.923 383.875,751.756 385.5,758.5C 383.856,758.714 382.356,758.38 381,757.5C 377.891,752.06 374.391,746.893 370.5,742C 366.637,740.646 362.637,740.146 358.5,740.5C 358.5,746.5 358.5,752.5 358.5,758.5C 356.856,758.714 355.356,758.38 354,757.5C 353.186,743.758 353.353,730.092 354.5,716.5 Z"/></g>
<g><path style="opacity:1" fill="#454546" d="M 493.5,720.5 C 488.833,720.5 484.167,720.5 479.5,720.5C 479.5,732.833 479.5,745.167 479.5,757.5C 478.116,758.801 476.616,758.801 475,757.5C 474.5,745.171 474.333,732.838 474.5,720.5C 469.5,720.5 464.5,720.5 459.5,720.5C 459.33,719.178 459.663,718.011 460.5,717C 471.5,716.333 482.5,716.333 493.5,717C 494.791,718.292 494.791,719.458 493.5,720.5 Z"/></g>
<g><path style="opacity:1" fill="#434344" d="M 712.5,720.5 C 705.5,720.5 698.5,720.5 691.5,720.5C 691.179,725.695 691.513,730.695 692.5,735.5C 699.167,735.5 705.833,735.5 712.5,735.5C 712.5,736.833 712.5,738.167 712.5,739.5C 705.833,739.5 699.167,739.5 692.5,739.5C 691.513,744.305 691.179,749.305 691.5,754.5C 698.5,754.5 705.5,754.5 712.5,754.5C 713.434,755.568 713.768,756.901 713.5,758.5C 704.833,758.5 696.167,758.5 687.5,758.5C 687.5,744.5 687.5,730.5 687.5,716.5C 696.167,716.5 704.833,716.5 713.5,716.5C 713.768,718.099 713.434,719.432 712.5,720.5 Z"/></g>
<g><path style="opacity:1" fill="#454546" d="M 808.5,741.5 C 805.038,740.518 801.371,740.185 797.5,740.5C 797.5,746.167 797.5,751.833 797.5,757.5C 796.432,758.434 795.099,758.768 793.5,758.5C 793.333,744.829 793.5,731.163 794,717.5C 800.752,716.355 807.586,716.189 814.5,717C 824.896,720.694 827.229,727.36 821.5,737C 819.403,738.61 817.07,739.777 814.5,740.5C 819.698,745.563 823.365,751.563 825.5,758.5C 824.127,758.657 822.793,758.49 821.5,758C 818.209,753.252 815.042,748.419 812,743.5C 811.184,742.177 810.017,741.511 808.5,741.5 Z"/></g>
<g><path style="opacity:1" fill="#9d9d9e" d="M 712.5,720.5 C 706.021,721.491 699.354,721.824 692.5,721.5C 692.5,726.167 692.5,730.833 692.5,735.5C 691.513,730.695 691.179,725.695 691.5,720.5C 698.5,720.5 705.5,720.5 712.5,720.5 Z"/></g>
<g><path style="opacity:1" fill="#9b9b9c" d="M 813.5,721.5 C 808.5,721.5 803.5,721.5 798.5,721.5C 798.5,726.5 798.5,731.5 798.5,736.5C 797.512,731.36 797.179,726.026 797.5,720.5C 803.026,720.179 808.36,720.512 813.5,721.5 Z"/></g>
<g><path style="opacity:1" fill="#f6f6f6" d="M 138.5,720.5 C 143.511,720.334 148.511,720.501 153.5,721C 157.238,722.399 158.904,725.066 158.5,729C 158.904,732.934 157.238,735.601 153.5,737C 148.511,737.499 143.511,737.666 138.5,737.5C 138.5,731.833 138.5,726.167 138.5,720.5 Z"/></g>
<g><path style="opacity:1" fill="#fdfdfd" d="M 358.5,721.5 C 364.509,721.334 370.509,721.501 376.5,722C 380.122,726.002 380.456,730.335 377.5,735C 371.258,736.37 364.925,736.87 358.5,736.5C 358.5,731.5 358.5,726.5 358.5,721.5 Z"/></g>
<g><path style="opacity:1" fill="#c4c4c4" d="M 493.5,720.5 C 489.366,721.485 485.032,721.818 480.5,721.5C 480.828,733.678 480.495,745.678 479.5,757.5C 479.5,745.167 479.5,732.833 479.5,720.5C 484.167,720.5 488.833,720.5 493.5,720.5 Z"/></g>
<g><path style="opacity:1" fill="#fcfcfc" d="M 813.5,721.5 C 818.987,723.138 820.82,726.805 819,732.5C 817.681,734.487 815.848,735.654 813.5,736C 808.511,736.499 803.511,736.666 798.5,736.5C 798.5,731.5 798.5,726.5 798.5,721.5C 803.5,721.5 808.5,721.5 813.5,721.5 Z"/></g>
<g><path style="opacity:1" fill="#f8f8f8" d="M 254.5,724.5 C 255.376,724.369 256.043,724.702 256.5,725.5C 259.167,731.167 261.833,736.833 264.5,742.5C 258.5,743.833 252.5,743.833 246.5,742.5C 249.181,736.474 251.848,730.474 254.5,724.5 Z"/></g>
<g><path style="opacity:1" fill="#9c9c9d" d="M 808.5,741.5 C 805.167,741.5 801.833,741.5 798.5,741.5C 798.821,747.026 798.488,752.36 797.5,757.5C 797.5,751.833 797.5,746.167 797.5,740.5C 801.371,740.185 805.038,740.518 808.5,741.5 Z"/></g>
<g><path style="opacity:1" fill="#bfbfc0" d="M 692.5,739.5 C 692.5,744.167 692.5,748.833 692.5,753.5C 699.354,753.176 706.021,753.509 712.5,754.5C 705.5,754.5 698.5,754.5 691.5,754.5C 691.179,749.305 691.513,744.305 692.5,739.5 Z"/></g>
</svg>
